<mxfile host="app.diagrams.net" modified="2024-05-14T03:26:57.610Z" agent="Mozilla/5.0 (Windows NT 10.0; Win64; x64) AppleWebKit/537.36 (KHTML, like Gecko) Chrome/124.0.0.0 Safari/537.36" etag="RISB3LnPTr6jJhi5Yek-" version="24.3.1" type="github" pages="10">
  <diagram name="ejercicio 1-1" id="aMzVJYx2lzPxbG5Cnz89">
    <mxGraphModel dx="1707" dy="468" grid="1" gridSize="10" guides="1" tooltips="1" connect="1" arrows="1" fold="1" page="1" pageScale="1" pageWidth="827" pageHeight="1169" math="0" shadow="0">
      <root>
        <mxCell id="0" />
        <mxCell id="1" parent="0" />
        <mxCell id="Sr8pLu3k_CO1aYNrHFgg-2" style="edgeStyle=orthogonalEdgeStyle;rounded=0;orthogonalLoop=1;jettySize=auto;html=1;exitX=0.5;exitY=1;exitDx=0;exitDy=0;entryX=0.5;entryY=0;entryDx=0;entryDy=0;" edge="1" parent="1" source="wMA7UBt0AcirdC4IcKDf-1" target="Sr8pLu3k_CO1aYNrHFgg-1">
          <mxGeometry relative="1" as="geometry" />
        </mxCell>
        <mxCell id="wMA7UBt0AcirdC4IcKDf-1" value="Algoritmo encontrar menor" style="rounded=1;whiteSpace=wrap;html=1;fillColor=#a0522d;fontColor=#ffffff;strokeColor=#6D1F00;" parent="1" vertex="1">
          <mxGeometry x="-478" y="30" width="148" height="30" as="geometry" />
        </mxCell>
        <mxCell id="Sr8pLu3k_CO1aYNrHFgg-4" style="edgeStyle=orthogonalEdgeStyle;rounded=0;orthogonalLoop=1;jettySize=auto;html=1;exitX=0.5;exitY=1;exitDx=0;exitDy=0;entryX=0.5;entryY=0;entryDx=0;entryDy=0;" edge="1" parent="1" source="Sr8pLu3k_CO1aYNrHFgg-1" target="Sr8pLu3k_CO1aYNrHFgg-3">
          <mxGeometry relative="1" as="geometry" />
        </mxCell>
        <mxCell id="Sr8pLu3k_CO1aYNrHFgg-1" value="Definir s1,s2,s3 como.." style="rounded=0;whiteSpace=wrap;html=1;" vertex="1" parent="1">
          <mxGeometry x="-483" y="100" width="158" height="40" as="geometry" />
        </mxCell>
        <mxCell id="Sr8pLu3k_CO1aYNrHFgg-5" style="edgeStyle=orthogonalEdgeStyle;rounded=0;orthogonalLoop=1;jettySize=auto;html=1;exitX=1;exitY=0;exitDx=0;exitDy=0;fillColor=#dae8fc;strokeColor=#6c8ebf;" edge="1" parent="1" source="Sr8pLu3k_CO1aYNrHFgg-3">
          <mxGeometry relative="1" as="geometry">
            <mxPoint x="-290" y="180" as="targetPoint" />
          </mxGeometry>
        </mxCell>
        <mxCell id="Sr8pLu3k_CO1aYNrHFgg-7" style="edgeStyle=orthogonalEdgeStyle;rounded=0;orthogonalLoop=1;jettySize=auto;html=1;exitX=0.5;exitY=1;exitDx=0;exitDy=0;entryX=0.5;entryY=0;entryDx=0;entryDy=0;fillColor=#f8cecc;strokeColor=#b85450;" edge="1" parent="1" source="Sr8pLu3k_CO1aYNrHFgg-3" target="Sr8pLu3k_CO1aYNrHFgg-6">
          <mxGeometry relative="1" as="geometry" />
        </mxCell>
        <mxCell id="Sr8pLu3k_CO1aYNrHFgg-3" value="Ingresar tres palabras" style="shape=parallelogram;html=1;strokeWidth=2;perimeter=parallelogramPerimeter;whiteSpace=wrap;rounded=1;arcSize=12;size=0.23;" vertex="1" parent="1">
          <mxGeometry x="-496.5" y="190" width="185" height="30" as="geometry" />
        </mxCell>
        <mxCell id="Sr8pLu3k_CO1aYNrHFgg-8" style="edgeStyle=orthogonalEdgeStyle;rounded=0;orthogonalLoop=1;jettySize=auto;html=1;exitX=1;exitY=0;exitDx=0;exitDy=0;fillColor=#dae8fc;strokeColor=#6c8ebf;" edge="1" parent="1" source="Sr8pLu3k_CO1aYNrHFgg-6">
          <mxGeometry relative="1" as="geometry">
            <mxPoint x="-310" y="270" as="targetPoint" />
          </mxGeometry>
        </mxCell>
        <mxCell id="Sr8pLu3k_CO1aYNrHFgg-10" style="edgeStyle=orthogonalEdgeStyle;rounded=0;orthogonalLoop=1;jettySize=auto;html=1;exitX=0.5;exitY=1;exitDx=0;exitDy=0;" edge="1" parent="1" source="Sr8pLu3k_CO1aYNrHFgg-6" target="Sr8pLu3k_CO1aYNrHFgg-9">
          <mxGeometry relative="1" as="geometry" />
        </mxCell>
        <mxCell id="Sr8pLu3k_CO1aYNrHFgg-6" value="s1,s2,s3" style="shape=parallelogram;html=1;strokeWidth=2;perimeter=parallelogramPerimeter;whiteSpace=wrap;rounded=1;arcSize=12;size=0.23;" vertex="1" parent="1">
          <mxGeometry x="-478" y="250" width="143" height="30" as="geometry" />
        </mxCell>
        <mxCell id="Sr8pLu3k_CO1aYNrHFgg-16" style="edgeStyle=orthogonalEdgeStyle;rounded=0;orthogonalLoop=1;jettySize=auto;html=1;entryX=0.5;entryY=0;entryDx=0;entryDy=0;" edge="1" parent="1" source="Sr8pLu3k_CO1aYNrHFgg-9" target="Sr8pLu3k_CO1aYNrHFgg-12">
          <mxGeometry relative="1" as="geometry" />
        </mxCell>
        <mxCell id="Sr8pLu3k_CO1aYNrHFgg-9" value="s1&amp;lt;s2&amp;nbsp; Y s1&amp;lt;s3" style="html=1;whiteSpace=wrap;aspect=fixed;shape=isoRectangle;" vertex="1" parent="1">
          <mxGeometry x="-492.25" y="340" width="171.5" height="102.9" as="geometry" />
        </mxCell>
        <mxCell id="Sr8pLu3k_CO1aYNrHFgg-19" style="edgeStyle=orthogonalEdgeStyle;rounded=0;orthogonalLoop=1;jettySize=auto;html=1;entryX=0.5;entryY=0;entryDx=0;entryDy=0;" edge="1" parent="1" source="Sr8pLu3k_CO1aYNrHFgg-11" target="Sr8pLu3k_CO1aYNrHFgg-13">
          <mxGeometry relative="1" as="geometry" />
        </mxCell>
        <mxCell id="Sr8pLu3k_CO1aYNrHFgg-11" value="s2&amp;lt;s1&amp;nbsp; Y&amp;nbsp; s2&amp;lt;s3" style="html=1;whiteSpace=wrap;aspect=fixed;shape=isoRectangle;" vertex="1" parent="1">
          <mxGeometry x="-740" y="450" width="150" height="90" as="geometry" />
        </mxCell>
        <mxCell id="Sr8pLu3k_CO1aYNrHFgg-26" style="edgeStyle=orthogonalEdgeStyle;rounded=0;orthogonalLoop=1;jettySize=auto;html=1;exitX=0.5;exitY=1;exitDx=0;exitDy=0;" edge="1" parent="1" source="Sr8pLu3k_CO1aYNrHFgg-12">
          <mxGeometry relative="1" as="geometry">
            <mxPoint x="-275" y="800" as="targetPoint" />
          </mxGeometry>
        </mxCell>
        <mxCell id="Sr8pLu3k_CO1aYNrHFgg-33" style="edgeStyle=orthogonalEdgeStyle;rounded=0;orthogonalLoop=1;jettySize=auto;html=1;exitX=1;exitY=0;exitDx=0;exitDy=0;" edge="1" parent="1" source="Sr8pLu3k_CO1aYNrHFgg-12">
          <mxGeometry relative="1" as="geometry">
            <mxPoint x="-210" y="470" as="targetPoint" />
          </mxGeometry>
        </mxCell>
        <mxCell id="Sr8pLu3k_CO1aYNrHFgg-12" value="s1" style="shape=parallelogram;html=1;strokeWidth=2;perimeter=parallelogramPerimeter;whiteSpace=wrap;rounded=1;arcSize=12;size=0.23;" vertex="1" parent="1">
          <mxGeometry x="-310" y="490" width="70" height="30" as="geometry" />
        </mxCell>
        <mxCell id="Sr8pLu3k_CO1aYNrHFgg-21" style="edgeStyle=orthogonalEdgeStyle;rounded=0;orthogonalLoop=1;jettySize=auto;html=1;exitX=0.5;exitY=1;exitDx=0;exitDy=0;" edge="1" parent="1" source="Sr8pLu3k_CO1aYNrHFgg-13">
          <mxGeometry relative="1" as="geometry">
            <mxPoint x="-775" y="710" as="targetPoint" />
          </mxGeometry>
        </mxCell>
        <mxCell id="Sr8pLu3k_CO1aYNrHFgg-35" style="edgeStyle=orthogonalEdgeStyle;rounded=0;orthogonalLoop=1;jettySize=auto;html=1;exitX=1;exitY=0;exitDx=0;exitDy=0;" edge="1" parent="1" source="Sr8pLu3k_CO1aYNrHFgg-13">
          <mxGeometry relative="1" as="geometry">
            <mxPoint x="-740" y="550" as="targetPoint" />
          </mxGeometry>
        </mxCell>
        <mxCell id="Sr8pLu3k_CO1aYNrHFgg-13" value="s3" style="shape=parallelogram;html=1;strokeWidth=2;perimeter=parallelogramPerimeter;whiteSpace=wrap;rounded=1;arcSize=12;size=0.23;" vertex="1" parent="1">
          <mxGeometry x="-800" y="555" width="50" height="30" as="geometry" />
        </mxCell>
        <mxCell id="Sr8pLu3k_CO1aYNrHFgg-22" style="edgeStyle=orthogonalEdgeStyle;rounded=0;orthogonalLoop=1;jettySize=auto;html=1;" edge="1" parent="1" source="Sr8pLu3k_CO1aYNrHFgg-14">
          <mxGeometry relative="1" as="geometry">
            <mxPoint x="-540" y="710" as="targetPoint" />
          </mxGeometry>
        </mxCell>
        <mxCell id="Sr8pLu3k_CO1aYNrHFgg-34" style="edgeStyle=orthogonalEdgeStyle;rounded=0;orthogonalLoop=1;jettySize=auto;html=1;exitX=1;exitY=0;exitDx=0;exitDy=0;" edge="1" parent="1" source="Sr8pLu3k_CO1aYNrHFgg-14">
          <mxGeometry relative="1" as="geometry">
            <mxPoint x="-490" y="540" as="targetPoint" />
          </mxGeometry>
        </mxCell>
        <mxCell id="Sr8pLu3k_CO1aYNrHFgg-14" value="s2" style="shape=parallelogram;html=1;strokeWidth=2;perimeter=parallelogramPerimeter;whiteSpace=wrap;rounded=1;arcSize=12;size=0.23;" vertex="1" parent="1">
          <mxGeometry x="-570" y="560" width="60" height="30" as="geometry" />
        </mxCell>
        <mxCell id="Sr8pLu3k_CO1aYNrHFgg-15" style="edgeStyle=orthogonalEdgeStyle;rounded=0;orthogonalLoop=1;jettySize=auto;html=1;entryX=0.533;entryY=0;entryDx=0;entryDy=0;entryPerimeter=0;" edge="1" parent="1" source="Sr8pLu3k_CO1aYNrHFgg-9" target="Sr8pLu3k_CO1aYNrHFgg-11">
          <mxGeometry relative="1" as="geometry" />
        </mxCell>
        <mxCell id="Sr8pLu3k_CO1aYNrHFgg-18" style="edgeStyle=orthogonalEdgeStyle;rounded=0;orthogonalLoop=1;jettySize=auto;html=1;entryX=0.617;entryY=0.067;entryDx=0;entryDy=0;entryPerimeter=0;" edge="1" parent="1" source="Sr8pLu3k_CO1aYNrHFgg-11" target="Sr8pLu3k_CO1aYNrHFgg-14">
          <mxGeometry relative="1" as="geometry" />
        </mxCell>
        <mxCell id="Sr8pLu3k_CO1aYNrHFgg-20" value="Finalgoritmo" style="rounded=1;whiteSpace=wrap;html=1;" vertex="1" parent="1">
          <mxGeometry x="-533" y="860" width="120" height="30" as="geometry" />
        </mxCell>
        <mxCell id="Sr8pLu3k_CO1aYNrHFgg-23" value="" style="endArrow=none;html=1;rounded=0;" edge="1" parent="1">
          <mxGeometry width="50" height="50" relative="1" as="geometry">
            <mxPoint x="-780" y="710" as="sourcePoint" />
            <mxPoint x="-540" y="710" as="targetPoint" />
          </mxGeometry>
        </mxCell>
        <mxCell id="Sr8pLu3k_CO1aYNrHFgg-25" value="" style="endArrow=classic;html=1;rounded=0;" edge="1" parent="1">
          <mxGeometry width="50" height="50" relative="1" as="geometry">
            <mxPoint x="-660" y="710" as="sourcePoint" />
            <mxPoint x="-660" y="800" as="targetPoint" />
          </mxGeometry>
        </mxCell>
        <mxCell id="Sr8pLu3k_CO1aYNrHFgg-27" value="" style="endArrow=none;html=1;rounded=0;" edge="1" parent="1">
          <mxGeometry width="50" height="50" relative="1" as="geometry">
            <mxPoint x="-660" y="800" as="sourcePoint" />
            <mxPoint x="-270" y="800" as="targetPoint" />
            <Array as="points">
              <mxPoint x="-470" y="800" />
            </Array>
          </mxGeometry>
        </mxCell>
        <mxCell id="Sr8pLu3k_CO1aYNrHFgg-28" value="" style="endArrow=classic;html=1;rounded=0;entryX=0.5;entryY=0;entryDx=0;entryDy=0;" edge="1" parent="1" target="Sr8pLu3k_CO1aYNrHFgg-20">
          <mxGeometry width="50" height="50" relative="1" as="geometry">
            <mxPoint x="-470" y="800" as="sourcePoint" />
            <mxPoint x="-390" y="640" as="targetPoint" />
          </mxGeometry>
        </mxCell>
        <mxCell id="Sr8pLu3k_CO1aYNrHFgg-29" value="F" style="rounded=0;whiteSpace=wrap;html=1;" vertex="1" parent="1">
          <mxGeometry x="-550" y="350" width="40" height="30" as="geometry" />
        </mxCell>
        <mxCell id="Sr8pLu3k_CO1aYNrHFgg-30" value="v" style="rounded=0;whiteSpace=wrap;html=1;" vertex="1" parent="1">
          <mxGeometry x="-290" y="350" width="30" height="30" as="geometry" />
        </mxCell>
        <mxCell id="Sr8pLu3k_CO1aYNrHFgg-31" value="F" style="rounded=0;whiteSpace=wrap;html=1;" vertex="1" parent="1">
          <mxGeometry x="-790" y="450" width="40" height="30" as="geometry" />
        </mxCell>
        <mxCell id="Sr8pLu3k_CO1aYNrHFgg-32" value="v" style="rounded=0;whiteSpace=wrap;html=1;" vertex="1" parent="1">
          <mxGeometry x="-540" y="460" width="40" height="30" as="geometry" />
        </mxCell>
      </root>
    </mxGraphModel>
  </diagram>
  <diagram id="Z7atlqA7Bc0uRfY9O2Nc" name="ejercicio 1-2">
    <mxGraphModel dx="2084" dy="669" grid="1" gridSize="10" guides="1" tooltips="1" connect="1" arrows="1" fold="1" page="1" pageScale="1" pageWidth="827" pageHeight="1169" math="0" shadow="0">
      <root>
        <mxCell id="0" />
        <mxCell id="1" parent="0" />
        <mxCell id="dhS2C1UCup6iso1RTpvb-8" style="edgeStyle=orthogonalEdgeStyle;rounded=0;orthogonalLoop=1;jettySize=auto;html=1;exitX=0.5;exitY=1;exitDx=0;exitDy=0;entryX=0.5;entryY=0;entryDx=0;entryDy=0;" edge="1" parent="1" source="dLXj2z8Rcfm2DWi8FZgi-1" target="dhS2C1UCup6iso1RTpvb-2">
          <mxGeometry relative="1" as="geometry" />
        </mxCell>
        <mxCell id="dLXj2z8Rcfm2DWi8FZgi-1" value="Algoritmo resolver ecuacion cuadrada" style="rounded=1;whiteSpace=wrap;html=1;" parent="1" vertex="1">
          <mxGeometry x="330" y="80" width="390" height="30" as="geometry" />
        </mxCell>
        <mxCell id="dhS2C1UCup6iso1RTpvb-20" style="edgeStyle=orthogonalEdgeStyle;rounded=0;orthogonalLoop=1;jettySize=auto;html=1;exitX=0.5;exitY=1;exitDx=0;exitDy=0;entryX=0.5;entryY=0;entryDx=0;entryDy=0;" edge="1" parent="1" source="dhS2C1UCup6iso1RTpvb-2" target="dhS2C1UCup6iso1RTpvb-19">
          <mxGeometry relative="1" as="geometry" />
        </mxCell>
        <mxCell id="dhS2C1UCup6iso1RTpvb-2" value="Definir a,b,c,x1,x2 como.." style="rounded=0;whiteSpace=wrap;html=1;" vertex="1" parent="1">
          <mxGeometry x="446" y="150" width="158" height="40" as="geometry" />
        </mxCell>
        <mxCell id="dhS2C1UCup6iso1RTpvb-3" style="edgeStyle=orthogonalEdgeStyle;rounded=0;orthogonalLoop=1;jettySize=auto;html=1;exitX=1;exitY=0;exitDx=0;exitDy=0;fillColor=#dae8fc;strokeColor=#6c8ebf;" edge="1" parent="1" source="dhS2C1UCup6iso1RTpvb-5">
          <mxGeometry relative="1" as="geometry">
            <mxPoint x="622.85" y="310" as="targetPoint" />
          </mxGeometry>
        </mxCell>
        <mxCell id="dhS2C1UCup6iso1RTpvb-4" style="edgeStyle=orthogonalEdgeStyle;rounded=0;orthogonalLoop=1;jettySize=auto;html=1;exitX=0.5;exitY=1;exitDx=0;exitDy=0;entryX=0.5;entryY=0;entryDx=0;entryDy=0;fillColor=#f8cecc;strokeColor=#b85450;" edge="1" parent="1" source="dhS2C1UCup6iso1RTpvb-5" target="dhS2C1UCup6iso1RTpvb-7">
          <mxGeometry relative="1" as="geometry" />
        </mxCell>
        <mxCell id="dhS2C1UCup6iso1RTpvb-5" value="Ingresar el coeficiente" style="shape=parallelogram;html=1;strokeWidth=2;perimeter=parallelogramPerimeter;whiteSpace=wrap;rounded=1;arcSize=12;size=0.23;" vertex="1" parent="1">
          <mxGeometry x="427.1" y="320" width="202.9" height="30" as="geometry" />
        </mxCell>
        <mxCell id="dhS2C1UCup6iso1RTpvb-6" style="edgeStyle=orthogonalEdgeStyle;rounded=0;orthogonalLoop=1;jettySize=auto;html=1;exitX=1;exitY=0;exitDx=0;exitDy=0;fillColor=#dae8fc;strokeColor=#6c8ebf;" edge="1" parent="1" source="dhS2C1UCup6iso1RTpvb-7">
          <mxGeometry relative="1" as="geometry">
            <mxPoint x="602.85" y="400" as="targetPoint" />
          </mxGeometry>
        </mxCell>
        <mxCell id="dhS2C1UCup6iso1RTpvb-32" style="edgeStyle=orthogonalEdgeStyle;rounded=0;orthogonalLoop=1;jettySize=auto;html=1;exitX=0.5;exitY=1;exitDx=0;exitDy=0;entryX=0.5;entryY=0;entryDx=0;entryDy=0;" edge="1" parent="1" source="dhS2C1UCup6iso1RTpvb-7" target="dhS2C1UCup6iso1RTpvb-24">
          <mxGeometry relative="1" as="geometry" />
        </mxCell>
        <mxCell id="dhS2C1UCup6iso1RTpvb-7" value="A" style="shape=parallelogram;html=1;strokeWidth=2;perimeter=parallelogramPerimeter;whiteSpace=wrap;rounded=1;arcSize=12;size=0.23;" vertex="1" parent="1">
          <mxGeometry x="488" y="380" width="81.1" height="30" as="geometry" />
        </mxCell>
        <mxCell id="dhS2C1UCup6iso1RTpvb-19" value="Definir&amp;nbsp; r como real" style="rounded=0;whiteSpace=wrap;html=1;" vertex="1" parent="1">
          <mxGeometry x="446" y="230" width="158" height="40" as="geometry" />
        </mxCell>
        <mxCell id="dhS2C1UCup6iso1RTpvb-21" style="edgeStyle=orthogonalEdgeStyle;rounded=0;orthogonalLoop=1;jettySize=auto;html=1;exitX=0.5;exitY=1;exitDx=0;exitDy=0;entryX=0.545;entryY=0;entryDx=0;entryDy=0;entryPerimeter=0;" edge="1" parent="1" source="dhS2C1UCup6iso1RTpvb-19" target="dhS2C1UCup6iso1RTpvb-5">
          <mxGeometry relative="1" as="geometry" />
        </mxCell>
        <mxCell id="dhS2C1UCup6iso1RTpvb-22" style="edgeStyle=orthogonalEdgeStyle;rounded=0;orthogonalLoop=1;jettySize=auto;html=1;exitX=1;exitY=0;exitDx=0;exitDy=0;fillColor=#dae8fc;strokeColor=#6c8ebf;" edge="1" parent="1" source="dhS2C1UCup6iso1RTpvb-24">
          <mxGeometry relative="1" as="geometry">
            <mxPoint x="619.3" y="440" as="targetPoint" />
          </mxGeometry>
        </mxCell>
        <mxCell id="dhS2C1UCup6iso1RTpvb-23" style="edgeStyle=orthogonalEdgeStyle;rounded=0;orthogonalLoop=1;jettySize=auto;html=1;exitX=0.5;exitY=1;exitDx=0;exitDy=0;entryX=0.5;entryY=0;entryDx=0;entryDy=0;fillColor=#f8cecc;strokeColor=#b85450;" edge="1" parent="1" source="dhS2C1UCup6iso1RTpvb-24" target="dhS2C1UCup6iso1RTpvb-26">
          <mxGeometry relative="1" as="geometry" />
        </mxCell>
        <mxCell id="dhS2C1UCup6iso1RTpvb-24" value="Ingresar el coeficiente" style="shape=parallelogram;html=1;strokeWidth=2;perimeter=parallelogramPerimeter;whiteSpace=wrap;rounded=1;arcSize=12;size=0.23;" vertex="1" parent="1">
          <mxGeometry x="423.55" y="450" width="202.9" height="30" as="geometry" />
        </mxCell>
        <mxCell id="dhS2C1UCup6iso1RTpvb-25" style="edgeStyle=orthogonalEdgeStyle;rounded=0;orthogonalLoop=1;jettySize=auto;html=1;exitX=1;exitY=0;exitDx=0;exitDy=0;fillColor=#dae8fc;strokeColor=#6c8ebf;" edge="1" parent="1" source="dhS2C1UCup6iso1RTpvb-26">
          <mxGeometry relative="1" as="geometry">
            <mxPoint x="599.3" y="530" as="targetPoint" />
          </mxGeometry>
        </mxCell>
        <mxCell id="dhS2C1UCup6iso1RTpvb-26" value="B" style="shape=parallelogram;html=1;strokeWidth=2;perimeter=parallelogramPerimeter;whiteSpace=wrap;rounded=1;arcSize=12;size=0.23;" vertex="1" parent="1">
          <mxGeometry x="484.45" y="510" width="81.1" height="30" as="geometry" />
        </mxCell>
        <mxCell id="dhS2C1UCup6iso1RTpvb-27" style="edgeStyle=orthogonalEdgeStyle;rounded=0;orthogonalLoop=1;jettySize=auto;html=1;exitX=1;exitY=0;exitDx=0;exitDy=0;fillColor=#dae8fc;strokeColor=#6c8ebf;" edge="1" parent="1" source="dhS2C1UCup6iso1RTpvb-29">
          <mxGeometry relative="1" as="geometry">
            <mxPoint x="609.75" y="570" as="targetPoint" />
          </mxGeometry>
        </mxCell>
        <mxCell id="dhS2C1UCup6iso1RTpvb-28" style="edgeStyle=orthogonalEdgeStyle;rounded=0;orthogonalLoop=1;jettySize=auto;html=1;exitX=0.5;exitY=1;exitDx=0;exitDy=0;entryX=0.5;entryY=0;entryDx=0;entryDy=0;fillColor=#f8cecc;strokeColor=#b85450;" edge="1" parent="1" source="dhS2C1UCup6iso1RTpvb-29" target="dhS2C1UCup6iso1RTpvb-31">
          <mxGeometry relative="1" as="geometry" />
        </mxCell>
        <mxCell id="dhS2C1UCup6iso1RTpvb-29" value="Ingresar el coeficiente" style="shape=parallelogram;html=1;strokeWidth=2;perimeter=parallelogramPerimeter;whiteSpace=wrap;rounded=1;arcSize=12;size=0.23;" vertex="1" parent="1">
          <mxGeometry x="414" y="580" width="202.9" height="30" as="geometry" />
        </mxCell>
        <mxCell id="dhS2C1UCup6iso1RTpvb-30" style="edgeStyle=orthogonalEdgeStyle;rounded=0;orthogonalLoop=1;jettySize=auto;html=1;exitX=1;exitY=0;exitDx=0;exitDy=0;fillColor=#dae8fc;strokeColor=#6c8ebf;" edge="1" parent="1" source="dhS2C1UCup6iso1RTpvb-31">
          <mxGeometry relative="1" as="geometry">
            <mxPoint x="589.75" y="660" as="targetPoint" />
          </mxGeometry>
        </mxCell>
        <mxCell id="dhS2C1UCup6iso1RTpvb-31" value="C" style="shape=parallelogram;html=1;strokeWidth=2;perimeter=parallelogramPerimeter;whiteSpace=wrap;rounded=1;arcSize=12;size=0.23;" vertex="1" parent="1">
          <mxGeometry x="474.9" y="640" width="81.1" height="30" as="geometry" />
        </mxCell>
        <mxCell id="dhS2C1UCup6iso1RTpvb-33" style="edgeStyle=orthogonalEdgeStyle;rounded=0;orthogonalLoop=1;jettySize=auto;html=1;exitX=0.5;exitY=1;exitDx=0;exitDy=0;entryX=0.542;entryY=-0.033;entryDx=0;entryDy=0;entryPerimeter=0;" edge="1" parent="1" source="dhS2C1UCup6iso1RTpvb-26" target="dhS2C1UCup6iso1RTpvb-29">
          <mxGeometry relative="1" as="geometry" />
        </mxCell>
        <mxCell id="eGFpuxoi3TTj16Am2u5s-1" value="A==0" style="html=1;whiteSpace=wrap;aspect=fixed;shape=isoRectangle;" vertex="1" parent="1">
          <mxGeometry x="448.79" y="710" width="133.33" height="80" as="geometry" />
        </mxCell>
        <mxCell id="eGFpuxoi3TTj16Am2u5s-2" value="F" style="rounded=0;whiteSpace=wrap;html=1;" vertex="1" parent="1">
          <mxGeometry x="360" y="690" width="40" height="30" as="geometry" />
        </mxCell>
        <mxCell id="eGFpuxoi3TTj16Am2u5s-3" value="v" style="rounded=0;whiteSpace=wrap;html=1;" vertex="1" parent="1">
          <mxGeometry x="630" y="700" width="30" height="30" as="geometry" />
        </mxCell>
        <mxCell id="eGFpuxoi3TTj16Am2u5s-18" style="edgeStyle=orthogonalEdgeStyle;rounded=0;orthogonalLoop=1;jettySize=auto;html=1;entryX=0.5;entryY=0;entryDx=0;entryDy=0;" edge="1" parent="1" source="eGFpuxoi3TTj16Am2u5s-4" target="eGFpuxoi3TTj16Am2u5s-16">
          <mxGeometry relative="1" as="geometry" />
        </mxCell>
        <mxCell id="eGFpuxoi3TTj16Am2u5s-19" style="edgeStyle=orthogonalEdgeStyle;rounded=0;orthogonalLoop=1;jettySize=auto;html=1;" edge="1" parent="1" source="eGFpuxoi3TTj16Am2u5s-4">
          <mxGeometry relative="1" as="geometry">
            <mxPoint x="570" y="1160" as="targetPoint" />
          </mxGeometry>
        </mxCell>
        <mxCell id="eGFpuxoi3TTj16Am2u5s-4" value="B&amp;lt;&amp;gt;0" style="html=1;whiteSpace=wrap;aspect=fixed;shape=isoRectangle;" vertex="1" parent="1">
          <mxGeometry x="680" y="837.1" width="123.1" height="73.86" as="geometry" />
        </mxCell>
        <mxCell id="eGFpuxoi3TTj16Am2u5s-5" value="F" style="rounded=0;whiteSpace=wrap;html=1;" vertex="1" parent="1">
          <mxGeometry x="604" y="827.1" width="40" height="30" as="geometry" />
        </mxCell>
        <mxCell id="eGFpuxoi3TTj16Am2u5s-6" value="v" style="rounded=0;whiteSpace=wrap;html=1;" vertex="1" parent="1">
          <mxGeometry x="860" y="827.1" width="30" height="30" as="geometry" />
        </mxCell>
        <mxCell id="eGFpuxoi3TTj16Am2u5s-24" style="edgeStyle=orthogonalEdgeStyle;rounded=0;orthogonalLoop=1;jettySize=auto;html=1;entryX=0.5;entryY=0;entryDx=0;entryDy=0;" edge="1" parent="1" source="eGFpuxoi3TTj16Am2u5s-7" target="eGFpuxoi3TTj16Am2u5s-22">
          <mxGeometry relative="1" as="geometry" />
        </mxCell>
        <mxCell id="eGFpuxoi3TTj16Am2u5s-31" style="edgeStyle=orthogonalEdgeStyle;rounded=0;orthogonalLoop=1;jettySize=auto;html=1;entryX=0.5;entryY=0;entryDx=0;entryDy=0;" edge="1" parent="1" source="eGFpuxoi3TTj16Am2u5s-7" target="eGFpuxoi3TTj16Am2u5s-25">
          <mxGeometry relative="1" as="geometry" />
        </mxCell>
        <mxCell id="eGFpuxoi3TTj16Am2u5s-7" value="B*B-4*AC*C&amp;lt;0" style="html=1;whiteSpace=wrap;aspect=fixed;shape=isoRectangle;" vertex="1" parent="1">
          <mxGeometry x="10" y="805.4300000000001" width="122.25" height="73.35" as="geometry" />
        </mxCell>
        <mxCell id="eGFpuxoi3TTj16Am2u5s-8" value="F" style="rounded=0;whiteSpace=wrap;html=1;" vertex="1" parent="1">
          <mxGeometry x="-60" y="790" width="40" height="30" as="geometry" />
        </mxCell>
        <mxCell id="eGFpuxoi3TTj16Am2u5s-9" value="v" style="rounded=0;whiteSpace=wrap;html=1;" vertex="1" parent="1">
          <mxGeometry x="170" y="797.1" width="30" height="30" as="geometry" />
        </mxCell>
        <mxCell id="eGFpuxoi3TTj16Am2u5s-10" style="edgeStyle=orthogonalEdgeStyle;rounded=0;orthogonalLoop=1;jettySize=auto;html=1;exitX=0.5;exitY=1;exitDx=0;exitDy=0;entryX=0.519;entryY=0.025;entryDx=0;entryDy=0;entryPerimeter=0;" edge="1" parent="1" source="dhS2C1UCup6iso1RTpvb-31" target="eGFpuxoi3TTj16Am2u5s-1">
          <mxGeometry relative="1" as="geometry" />
        </mxCell>
        <mxCell id="eGFpuxoi3TTj16Am2u5s-12" style="edgeStyle=orthogonalEdgeStyle;rounded=0;orthogonalLoop=1;jettySize=auto;html=1;entryX=0.504;entryY=0.026;entryDx=0;entryDy=0;entryPerimeter=0;" edge="1" parent="1" source="eGFpuxoi3TTj16Am2u5s-1" target="eGFpuxoi3TTj16Am2u5s-4">
          <mxGeometry relative="1" as="geometry" />
        </mxCell>
        <mxCell id="eGFpuxoi3TTj16Am2u5s-13" style="edgeStyle=orthogonalEdgeStyle;rounded=0;orthogonalLoop=1;jettySize=auto;html=1;entryX=0.474;entryY=0.062;entryDx=0;entryDy=0;entryPerimeter=0;" edge="1" parent="1" source="eGFpuxoi3TTj16Am2u5s-1" target="eGFpuxoi3TTj16Am2u5s-7">
          <mxGeometry relative="1" as="geometry" />
        </mxCell>
        <mxCell id="eGFpuxoi3TTj16Am2u5s-14" style="edgeStyle=orthogonalEdgeStyle;rounded=0;orthogonalLoop=1;jettySize=auto;html=1;exitX=1;exitY=0;exitDx=0;exitDy=0;fillColor=#dae8fc;strokeColor=#6c8ebf;" edge="1" parent="1" source="eGFpuxoi3TTj16Am2u5s-15">
          <mxGeometry relative="1" as="geometry">
            <mxPoint x="1022.75" y="1060" as="targetPoint" />
          </mxGeometry>
        </mxCell>
        <mxCell id="eGFpuxoi3TTj16Am2u5s-20" style="edgeStyle=orthogonalEdgeStyle;rounded=0;orthogonalLoop=1;jettySize=auto;html=1;" edge="1" parent="1" source="eGFpuxoi3TTj16Am2u5s-15">
          <mxGeometry relative="1" as="geometry">
            <mxPoint x="928.4499999999998" y="1160" as="targetPoint" />
          </mxGeometry>
        </mxCell>
        <mxCell id="eGFpuxoi3TTj16Am2u5s-15" value="La solucion es: ,X" style="shape=parallelogram;html=1;strokeWidth=2;perimeter=parallelogramPerimeter;whiteSpace=wrap;rounded=1;arcSize=12;size=0.23;" vertex="1" parent="1">
          <mxGeometry x="827" y="1070" width="202.9" height="30" as="geometry" />
        </mxCell>
        <mxCell id="eGFpuxoi3TTj16Am2u5s-16" value="X&amp;lt;-&amp;nbsp; -C/B" style="rounded=0;whiteSpace=wrap;html=1;" vertex="1" parent="1">
          <mxGeometry x="845.9" y="980" width="158" height="40" as="geometry" />
        </mxCell>
        <mxCell id="eGFpuxoi3TTj16Am2u5s-17" style="edgeStyle=orthogonalEdgeStyle;rounded=0;orthogonalLoop=1;jettySize=auto;html=1;exitX=0.5;exitY=1;exitDx=0;exitDy=0;entryX=0.545;entryY=0;entryDx=0;entryDy=0;entryPerimeter=0;" edge="1" parent="1" source="eGFpuxoi3TTj16Am2u5s-16" target="eGFpuxoi3TTj16Am2u5s-15">
          <mxGeometry relative="1" as="geometry" />
        </mxCell>
        <mxCell id="eGFpuxoi3TTj16Am2u5s-21" value="" style="endArrow=none;html=1;rounded=0;" edge="1" parent="1">
          <mxGeometry width="50" height="50" relative="1" as="geometry">
            <mxPoint x="570" y="1150" as="sourcePoint" />
            <mxPoint x="930" y="1150" as="targetPoint" />
          </mxGeometry>
        </mxCell>
        <mxCell id="eGFpuxoi3TTj16Am2u5s-50" style="edgeStyle=orthogonalEdgeStyle;rounded=0;orthogonalLoop=1;jettySize=auto;html=1;" edge="1" parent="1" source="eGFpuxoi3TTj16Am2u5s-22">
          <mxGeometry relative="1" as="geometry">
            <mxPoint x="280" y="1552" as="targetPoint" />
          </mxGeometry>
        </mxCell>
        <mxCell id="eGFpuxoi3TTj16Am2u5s-22" value="La ecuacion no tiene.." style="shape=parallelogram;html=1;strokeWidth=2;perimeter=parallelogramPerimeter;whiteSpace=wrap;rounded=1;arcSize=12;size=0.23;" vertex="1" parent="1">
          <mxGeometry x="170" y="900" width="202.9" height="30" as="geometry" />
        </mxCell>
        <mxCell id="eGFpuxoi3TTj16Am2u5s-32" style="edgeStyle=orthogonalEdgeStyle;rounded=0;orthogonalLoop=1;jettySize=auto;html=1;exitX=0.5;exitY=1;exitDx=0;exitDy=0;" edge="1" parent="1" source="eGFpuxoi3TTj16Am2u5s-25" target="eGFpuxoi3TTj16Am2u5s-26">
          <mxGeometry relative="1" as="geometry" />
        </mxCell>
        <mxCell id="eGFpuxoi3TTj16Am2u5s-25" value="Divisor&amp;nbsp; &amp;lt;--&amp;nbsp; &amp;nbsp; 2*A&amp;nbsp;" style="rounded=0;whiteSpace=wrap;html=1;" vertex="1" parent="1">
          <mxGeometry x="-270" y="910" width="140" height="20" as="geometry" />
        </mxCell>
        <mxCell id="eGFpuxoi3TTj16Am2u5s-33" style="edgeStyle=orthogonalEdgeStyle;rounded=0;orthogonalLoop=1;jettySize=auto;html=1;exitX=0.5;exitY=1;exitDx=0;exitDy=0;entryX=0.5;entryY=0;entryDx=0;entryDy=0;" edge="1" parent="1" source="eGFpuxoi3TTj16Am2u5s-26" target="eGFpuxoi3TTj16Am2u5s-27">
          <mxGeometry relative="1" as="geometry" />
        </mxCell>
        <mxCell id="eGFpuxoi3TTj16Am2u5s-26" value="r&amp;lt;--&amp;nbsp; RAIZ (B*B-4*A*C)" style="rounded=0;whiteSpace=wrap;html=1;" vertex="1" parent="1">
          <mxGeometry x="-270.0000000000001" y="970" width="158" height="40" as="geometry" />
        </mxCell>
        <mxCell id="eGFpuxoi3TTj16Am2u5s-35" style="edgeStyle=orthogonalEdgeStyle;rounded=0;orthogonalLoop=1;jettySize=auto;html=1;exitX=0.5;exitY=1;exitDx=0;exitDy=0;" edge="1" parent="1" source="eGFpuxoi3TTj16Am2u5s-27" target="eGFpuxoi3TTj16Am2u5s-34">
          <mxGeometry relative="1" as="geometry" />
        </mxCell>
        <mxCell id="eGFpuxoi3TTj16Am2u5s-27" value="X1 &amp;lt;--&amp;nbsp; (-B+r)/ divisor&amp;nbsp;" style="rounded=0;whiteSpace=wrap;html=1;" vertex="1" parent="1">
          <mxGeometry x="-270.0000000000001" y="1040" width="158" height="40" as="geometry" />
        </mxCell>
        <mxCell id="eGFpuxoi3TTj16Am2u5s-34" value="X2 &amp;lt;--&amp;nbsp; (-B+r)/ divisor&amp;nbsp;" style="rounded=0;whiteSpace=wrap;html=1;" vertex="1" parent="1">
          <mxGeometry x="-270" y="1129" width="158" height="40" as="geometry" />
        </mxCell>
        <mxCell id="eGFpuxoi3TTj16Am2u5s-45" style="edgeStyle=orthogonalEdgeStyle;rounded=0;orthogonalLoop=1;jettySize=auto;html=1;entryX=0.5;entryY=0;entryDx=0;entryDy=0;" edge="1" parent="1" source="eGFpuxoi3TTj16Am2u5s-36" target="eGFpuxoi3TTj16Am2u5s-41">
          <mxGeometry relative="1" as="geometry" />
        </mxCell>
        <mxCell id="eGFpuxoi3TTj16Am2u5s-46" style="edgeStyle=orthogonalEdgeStyle;rounded=0;orthogonalLoop=1;jettySize=auto;html=1;entryX=0.75;entryY=0;entryDx=0;entryDy=0;" edge="1" parent="1" source="eGFpuxoi3TTj16Am2u5s-36" target="eGFpuxoi3TTj16Am2u5s-43">
          <mxGeometry relative="1" as="geometry" />
        </mxCell>
        <mxCell id="eGFpuxoi3TTj16Am2u5s-36" value="X1==X2" style="html=1;whiteSpace=wrap;aspect=fixed;shape=isoRectangle;" vertex="1" parent="1">
          <mxGeometry x="-258" y="1270" width="123.1" height="73.86" as="geometry" />
        </mxCell>
        <mxCell id="eGFpuxoi3TTj16Am2u5s-37" value="F" style="rounded=0;whiteSpace=wrap;html=1;" vertex="1" parent="1">
          <mxGeometry x="-334" y="1260" width="40" height="30" as="geometry" />
        </mxCell>
        <mxCell id="eGFpuxoi3TTj16Am2u5s-38" value="v" style="rounded=0;whiteSpace=wrap;html=1;" vertex="1" parent="1">
          <mxGeometry x="-78" y="1260" width="30" height="30" as="geometry" />
        </mxCell>
        <mxCell id="eGFpuxoi3TTj16Am2u5s-39" style="edgeStyle=orthogonalEdgeStyle;rounded=0;orthogonalLoop=1;jettySize=auto;html=1;exitX=0.5;exitY=1;exitDx=0;exitDy=0;entryX=0.52;entryY=0.054;entryDx=0;entryDy=0;entryPerimeter=0;" edge="1" parent="1" source="eGFpuxoi3TTj16Am2u5s-34" target="eGFpuxoi3TTj16Am2u5s-36">
          <mxGeometry relative="1" as="geometry" />
        </mxCell>
        <mxCell id="eGFpuxoi3TTj16Am2u5s-40" style="edgeStyle=orthogonalEdgeStyle;rounded=0;orthogonalLoop=1;jettySize=auto;html=1;exitX=1;exitY=0;exitDx=0;exitDy=0;fillColor=#dae8fc;strokeColor=#6c8ebf;" edge="1" parent="1" source="eGFpuxoi3TTj16Am2u5s-41">
          <mxGeometry relative="1" as="geometry">
            <mxPoint x="-292" y="1310" as="targetPoint" />
          </mxGeometry>
        </mxCell>
        <mxCell id="eGFpuxoi3TTj16Am2u5s-49" style="edgeStyle=orthogonalEdgeStyle;rounded=0;orthogonalLoop=1;jettySize=auto;html=1;" edge="1" parent="1" source="eGFpuxoi3TTj16Am2u5s-41">
          <mxGeometry relative="1" as="geometry">
            <mxPoint x="-413.54999999999995" y="1460" as="targetPoint" />
          </mxGeometry>
        </mxCell>
        <mxCell id="eGFpuxoi3TTj16Am2u5s-41" value="La solucion son..." style="shape=parallelogram;html=1;strokeWidth=2;perimeter=parallelogramPerimeter;whiteSpace=wrap;rounded=1;arcSize=12;size=0.23;" vertex="1" parent="1">
          <mxGeometry x="-515" y="1330" width="202.9" height="30" as="geometry" />
        </mxCell>
        <mxCell id="eGFpuxoi3TTj16Am2u5s-42" style="edgeStyle=orthogonalEdgeStyle;rounded=0;orthogonalLoop=1;jettySize=auto;html=1;exitX=1;exitY=0;exitDx=0;exitDy=0;fillColor=#dae8fc;strokeColor=#6c8ebf;" edge="1" parent="1" source="eGFpuxoi3TTj16Am2u5s-43">
          <mxGeometry relative="1" as="geometry">
            <mxPoint x="79.85" y="1320" as="targetPoint" />
          </mxGeometry>
        </mxCell>
        <mxCell id="eGFpuxoi3TTj16Am2u5s-48" style="edgeStyle=orthogonalEdgeStyle;rounded=0;orthogonalLoop=1;jettySize=auto;html=1;exitX=0.5;exitY=1;exitDx=0;exitDy=0;" edge="1" parent="1" source="eGFpuxoi3TTj16Am2u5s-43">
          <mxGeometry relative="1" as="geometry">
            <mxPoint x="1" y="1460" as="targetPoint" />
          </mxGeometry>
        </mxCell>
        <mxCell id="eGFpuxoi3TTj16Am2u5s-43" value="La solucion doble es ..." style="shape=parallelogram;html=1;strokeWidth=2;perimeter=parallelogramPerimeter;whiteSpace=wrap;rounded=1;arcSize=12;size=0.23;" vertex="1" parent="1">
          <mxGeometry x="-100" y="1340" width="202.9" height="30" as="geometry" />
        </mxCell>
        <mxCell id="eGFpuxoi3TTj16Am2u5s-47" value="" style="endArrow=none;html=1;rounded=0;" edge="1" parent="1">
          <mxGeometry width="50" height="50" relative="1" as="geometry">
            <mxPoint x="-410" y="1460" as="sourcePoint" />
            <mxPoint y="1460" as="targetPoint" />
          </mxGeometry>
        </mxCell>
        <mxCell id="eGFpuxoi3TTj16Am2u5s-51" value="" style="endArrow=classic;html=1;rounded=0;" edge="1" parent="1">
          <mxGeometry width="50" height="50" relative="1" as="geometry">
            <mxPoint x="-220" y="1460" as="sourcePoint" />
            <mxPoint x="-220" y="1540" as="targetPoint" />
          </mxGeometry>
        </mxCell>
        <mxCell id="eGFpuxoi3TTj16Am2u5s-52" value="" style="endArrow=none;html=1;rounded=0;" edge="1" parent="1">
          <mxGeometry width="50" height="50" relative="1" as="geometry">
            <mxPoint x="-220" y="1530" as="sourcePoint" />
            <mxPoint x="280" y="1530" as="targetPoint" />
          </mxGeometry>
        </mxCell>
        <mxCell id="eGFpuxoi3TTj16Am2u5s-53" value="" style="endArrow=classic;html=1;rounded=0;" edge="1" parent="1">
          <mxGeometry width="50" height="50" relative="1" as="geometry">
            <mxPoint x="780" y="1150" as="sourcePoint" />
            <mxPoint x="780" y="1600" as="targetPoint" />
          </mxGeometry>
        </mxCell>
        <mxCell id="eGFpuxoi3TTj16Am2u5s-54" value="" style="endArrow=classic;html=1;rounded=0;" edge="1" parent="1">
          <mxGeometry width="50" height="50" relative="1" as="geometry">
            <mxPoint x="30" y="1530" as="sourcePoint" />
            <mxPoint x="30" y="1610" as="targetPoint" />
          </mxGeometry>
        </mxCell>
        <mxCell id="eGFpuxoi3TTj16Am2u5s-55" value="" style="endArrow=none;html=1;rounded=0;" edge="1" parent="1">
          <mxGeometry width="50" height="50" relative="1" as="geometry">
            <mxPoint x="30" y="1610" as="sourcePoint" />
            <mxPoint x="780" y="1600" as="targetPoint" />
          </mxGeometry>
        </mxCell>
        <mxCell id="eGFpuxoi3TTj16Am2u5s-56" value="finalgoritmo" style="rounded=1;whiteSpace=wrap;html=1;" vertex="1" parent="1">
          <mxGeometry x="390" y="1694" width="120" height="26" as="geometry" />
        </mxCell>
        <mxCell id="eGFpuxoi3TTj16Am2u5s-57" value="" style="endArrow=classic;html=1;rounded=0;entryX=0.5;entryY=0;entryDx=0;entryDy=0;" edge="1" parent="1" target="eGFpuxoi3TTj16Am2u5s-56">
          <mxGeometry width="50" height="50" relative="1" as="geometry">
            <mxPoint x="450" y="1610" as="sourcePoint" />
            <mxPoint x="470" y="1580" as="targetPoint" />
          </mxGeometry>
        </mxCell>
      </root>
    </mxGraphModel>
  </diagram>
  <diagram id="cexyqp7QSCRbi2R4wMYo" name="ejercicio 1-3">
    <mxGraphModel dx="880" dy="468" grid="1" gridSize="10" guides="1" tooltips="1" connect="1" arrows="1" fold="1" page="1" pageScale="1" pageWidth="827" pageHeight="1169" math="0" shadow="0">
      <root>
        <mxCell id="0" />
        <mxCell id="1" parent="0" />
        <mxCell id="PiPSKaVZDPTiUl-D9aFz-1" style="edgeStyle=orthogonalEdgeStyle;rounded=0;orthogonalLoop=1;jettySize=auto;html=1;exitX=0.5;exitY=1;exitDx=0;exitDy=0;entryX=0.5;entryY=0;entryDx=0;entryDy=0;" edge="1" parent="1" source="PiPSKaVZDPTiUl-D9aFz-2" target="PiPSKaVZDPTiUl-D9aFz-3">
          <mxGeometry relative="1" as="geometry" />
        </mxCell>
        <mxCell id="PiPSKaVZDPTiUl-D9aFz-2" value="Algoritmo resolver divison entera&amp;nbsp;" style="rounded=1;whiteSpace=wrap;html=1;" vertex="1" parent="1">
          <mxGeometry x="370" y="60" width="390" height="30" as="geometry" />
        </mxCell>
        <mxCell id="B6sb7FwDGx8MngcKmXQu-12" style="edgeStyle=orthogonalEdgeStyle;rounded=0;orthogonalLoop=1;jettySize=auto;html=1;exitX=0.5;exitY=1;exitDx=0;exitDy=0;entryX=0.5;entryY=0;entryDx=0;entryDy=0;" edge="1" parent="1" source="PiPSKaVZDPTiUl-D9aFz-3" target="B6sb7FwDGx8MngcKmXQu-3">
          <mxGeometry relative="1" as="geometry" />
        </mxCell>
        <mxCell id="PiPSKaVZDPTiUl-D9aFz-3" value="Definir A,B, cociente C..." style="rounded=0;whiteSpace=wrap;html=1;" vertex="1" parent="1">
          <mxGeometry x="486" y="130" width="158" height="40" as="geometry" />
        </mxCell>
        <mxCell id="B6sb7FwDGx8MngcKmXQu-1" style="edgeStyle=orthogonalEdgeStyle;rounded=0;orthogonalLoop=1;jettySize=auto;html=1;exitX=1;exitY=0;exitDx=0;exitDy=0;fillColor=#dae8fc;strokeColor=#6c8ebf;" edge="1" parent="1" source="B6sb7FwDGx8MngcKmXQu-3">
          <mxGeometry relative="1" as="geometry">
            <mxPoint x="649.3" y="200" as="targetPoint" />
          </mxGeometry>
        </mxCell>
        <mxCell id="B6sb7FwDGx8MngcKmXQu-2" style="edgeStyle=orthogonalEdgeStyle;rounded=0;orthogonalLoop=1;jettySize=auto;html=1;exitX=0.5;exitY=1;exitDx=0;exitDy=0;entryX=0.5;entryY=0;entryDx=0;entryDy=0;fillColor=#f8cecc;strokeColor=#b85450;" edge="1" parent="1" source="B6sb7FwDGx8MngcKmXQu-3" target="B6sb7FwDGx8MngcKmXQu-6">
          <mxGeometry relative="1" as="geometry" />
        </mxCell>
        <mxCell id="B6sb7FwDGx8MngcKmXQu-3" value="Ingresar el valor A" style="shape=parallelogram;html=1;strokeWidth=2;perimeter=parallelogramPerimeter;whiteSpace=wrap;rounded=1;arcSize=12;size=0.23;" vertex="1" parent="1">
          <mxGeometry x="453.54999999999995" y="210" width="202.9" height="30" as="geometry" />
        </mxCell>
        <mxCell id="B6sb7FwDGx8MngcKmXQu-4" style="edgeStyle=orthogonalEdgeStyle;rounded=0;orthogonalLoop=1;jettySize=auto;html=1;exitX=1;exitY=0;exitDx=0;exitDy=0;fillColor=#dae8fc;strokeColor=#6c8ebf;" edge="1" parent="1" source="B6sb7FwDGx8MngcKmXQu-6">
          <mxGeometry relative="1" as="geometry">
            <mxPoint x="629.3" y="290" as="targetPoint" />
          </mxGeometry>
        </mxCell>
        <mxCell id="B6sb7FwDGx8MngcKmXQu-5" style="edgeStyle=orthogonalEdgeStyle;rounded=0;orthogonalLoop=1;jettySize=auto;html=1;exitX=0.5;exitY=1;exitDx=0;exitDy=0;entryX=0.5;entryY=0;entryDx=0;entryDy=0;" edge="1" parent="1" source="B6sb7FwDGx8MngcKmXQu-6" target="B6sb7FwDGx8MngcKmXQu-9">
          <mxGeometry relative="1" as="geometry" />
        </mxCell>
        <mxCell id="B6sb7FwDGx8MngcKmXQu-6" value="A" style="shape=parallelogram;html=1;strokeWidth=2;perimeter=parallelogramPerimeter;whiteSpace=wrap;rounded=1;arcSize=12;size=0.23;" vertex="1" parent="1">
          <mxGeometry x="514.45" y="270" width="81.1" height="30" as="geometry" />
        </mxCell>
        <mxCell id="B6sb7FwDGx8MngcKmXQu-7" style="edgeStyle=orthogonalEdgeStyle;rounded=0;orthogonalLoop=1;jettySize=auto;html=1;exitX=1;exitY=0;exitDx=0;exitDy=0;fillColor=#dae8fc;strokeColor=#6c8ebf;" edge="1" parent="1" source="B6sb7FwDGx8MngcKmXQu-9">
          <mxGeometry relative="1" as="geometry">
            <mxPoint x="645.75" y="330" as="targetPoint" />
          </mxGeometry>
        </mxCell>
        <mxCell id="B6sb7FwDGx8MngcKmXQu-8" style="edgeStyle=orthogonalEdgeStyle;rounded=0;orthogonalLoop=1;jettySize=auto;html=1;exitX=0.5;exitY=1;exitDx=0;exitDy=0;entryX=0.5;entryY=0;entryDx=0;entryDy=0;fillColor=#f8cecc;strokeColor=#b85450;" edge="1" parent="1" source="B6sb7FwDGx8MngcKmXQu-9" target="B6sb7FwDGx8MngcKmXQu-11">
          <mxGeometry relative="1" as="geometry" />
        </mxCell>
        <mxCell id="B6sb7FwDGx8MngcKmXQu-9" value="Ingresar el valor B" style="shape=parallelogram;html=1;strokeWidth=2;perimeter=parallelogramPerimeter;whiteSpace=wrap;rounded=1;arcSize=12;size=0.23;" vertex="1" parent="1">
          <mxGeometry x="450" y="340" width="202.9" height="30" as="geometry" />
        </mxCell>
        <mxCell id="B6sb7FwDGx8MngcKmXQu-10" style="edgeStyle=orthogonalEdgeStyle;rounded=0;orthogonalLoop=1;jettySize=auto;html=1;exitX=1;exitY=0;exitDx=0;exitDy=0;fillColor=#dae8fc;strokeColor=#6c8ebf;" edge="1" parent="1" source="B6sb7FwDGx8MngcKmXQu-11">
          <mxGeometry relative="1" as="geometry">
            <mxPoint x="625.75" y="420" as="targetPoint" />
          </mxGeometry>
        </mxCell>
        <mxCell id="B6sb7FwDGx8MngcKmXQu-11" value="B" style="shape=parallelogram;html=1;strokeWidth=2;perimeter=parallelogramPerimeter;whiteSpace=wrap;rounded=1;arcSize=12;size=0.23;" vertex="1" parent="1">
          <mxGeometry x="510.9" y="400" width="81.1" height="30" as="geometry" />
        </mxCell>
        <mxCell id="-l586m2CJQwHoQ8NTDWe-1" style="edgeStyle=orthogonalEdgeStyle;rounded=0;orthogonalLoop=1;jettySize=auto;html=1;entryX=0.5;entryY=0;entryDx=0;entryDy=0;" edge="1" parent="1" source="-l586m2CJQwHoQ8NTDWe-3" target="-l586m2CJQwHoQ8NTDWe-6">
          <mxGeometry relative="1" as="geometry" />
        </mxCell>
        <mxCell id="-l586m2CJQwHoQ8NTDWe-2" style="edgeStyle=orthogonalEdgeStyle;rounded=0;orthogonalLoop=1;jettySize=auto;html=1;entryX=0.5;entryY=0;entryDx=0;entryDy=0;" edge="1" parent="1" source="-l586m2CJQwHoQ8NTDWe-3" target="-l586m2CJQwHoQ8NTDWe-8">
          <mxGeometry relative="1" as="geometry" />
        </mxCell>
        <mxCell id="-l586m2CJQwHoQ8NTDWe-3" value="B=0" style="html=1;whiteSpace=wrap;aspect=fixed;shape=isoRectangle;" vertex="1" parent="1">
          <mxGeometry x="490.0000000000001" y="505.43000000000006" width="122.25" height="73.35" as="geometry" />
        </mxCell>
        <mxCell id="-l586m2CJQwHoQ8NTDWe-4" value="F" style="rounded=0;whiteSpace=wrap;html=1;" vertex="1" parent="1">
          <mxGeometry x="420.0000000000001" y="490" width="40" height="30" as="geometry" />
        </mxCell>
        <mxCell id="-l586m2CJQwHoQ8NTDWe-5" value="v" style="rounded=0;whiteSpace=wrap;html=1;" vertex="1" parent="1">
          <mxGeometry x="650.0000000000001" y="497.1" width="30" height="30" as="geometry" />
        </mxCell>
        <mxCell id="-l586m2CJQwHoQ8NTDWe-14" style="edgeStyle=orthogonalEdgeStyle;rounded=0;orthogonalLoop=1;jettySize=auto;html=1;exitX=0.5;exitY=1;exitDx=0;exitDy=0;" edge="1" parent="1" source="-l586m2CJQwHoQ8NTDWe-6">
          <mxGeometry relative="1" as="geometry">
            <mxPoint x="760" y="760" as="targetPoint" />
          </mxGeometry>
        </mxCell>
        <mxCell id="-l586m2CJQwHoQ8NTDWe-6" value="Imposible" style="shape=parallelogram;html=1;strokeWidth=2;perimeter=parallelogramPerimeter;whiteSpace=wrap;rounded=1;arcSize=12;size=0.23;" vertex="1" parent="1">
          <mxGeometry x="650.0000000000001" y="600" width="202.9" height="30" as="geometry" />
        </mxCell>
        <mxCell id="-l586m2CJQwHoQ8NTDWe-8" value="cofiente&amp;nbsp; &amp;lt;-- A/B" style="rounded=0;whiteSpace=wrap;html=1;" vertex="1" parent="1">
          <mxGeometry x="210.0000000000001" y="610" width="140" height="20" as="geometry" />
        </mxCell>
        <mxCell id="-l586m2CJQwHoQ8NTDWe-13" style="edgeStyle=orthogonalEdgeStyle;rounded=0;orthogonalLoop=1;jettySize=auto;html=1;exitX=0.5;exitY=1;exitDx=0;exitDy=0;" edge="1" parent="1" source="-l586m2CJQwHoQ8NTDWe-10">
          <mxGeometry relative="1" as="geometry">
            <mxPoint x="269" y="760" as="targetPoint" />
          </mxGeometry>
        </mxCell>
        <mxCell id="-l586m2CJQwHoQ8NTDWe-10" value="la parte entera de C" style="shape=parallelogram;html=1;strokeWidth=2;perimeter=parallelogramPerimeter;whiteSpace=wrap;rounded=1;arcSize=12;size=0.23;" vertex="1" parent="1">
          <mxGeometry x="167.1" y="660" width="202.9" height="30" as="geometry" />
        </mxCell>
        <mxCell id="-l586m2CJQwHoQ8NTDWe-11" style="edgeStyle=orthogonalEdgeStyle;rounded=0;orthogonalLoop=1;jettySize=auto;html=1;exitX=0.5;exitY=1;exitDx=0;exitDy=0;entryX=0.524;entryY=0.09;entryDx=0;entryDy=0;entryPerimeter=0;" edge="1" parent="1" source="B6sb7FwDGx8MngcKmXQu-11" target="-l586m2CJQwHoQ8NTDWe-3">
          <mxGeometry relative="1" as="geometry" />
        </mxCell>
        <mxCell id="-l586m2CJQwHoQ8NTDWe-12" style="edgeStyle=orthogonalEdgeStyle;rounded=0;orthogonalLoop=1;jettySize=auto;html=1;exitX=0.5;exitY=1;exitDx=0;exitDy=0;entryX=0.547;entryY=0.067;entryDx=0;entryDy=0;entryPerimeter=0;" edge="1" parent="1" source="-l586m2CJQwHoQ8NTDWe-8" target="-l586m2CJQwHoQ8NTDWe-10">
          <mxGeometry relative="1" as="geometry" />
        </mxCell>
        <mxCell id="-l586m2CJQwHoQ8NTDWe-15" value="" style="endArrow=none;html=1;rounded=0;" edge="1" parent="1">
          <mxGeometry width="50" height="50" relative="1" as="geometry">
            <mxPoint x="270" y="760" as="sourcePoint" />
            <mxPoint x="760" y="760" as="targetPoint" />
          </mxGeometry>
        </mxCell>
        <mxCell id="ziovndCBavEDjwZ7bvAk-1" value="finalgoritmo" style="rounded=1;whiteSpace=wrap;html=1;" vertex="1" parent="1">
          <mxGeometry x="470" y="840" width="120" height="26" as="geometry" />
        </mxCell>
        <mxCell id="ziovndCBavEDjwZ7bvAk-2" value="" style="endArrow=classic;html=1;rounded=0;entryX=0.5;entryY=0;entryDx=0;entryDy=0;" edge="1" parent="1" target="ziovndCBavEDjwZ7bvAk-1">
          <mxGeometry width="50" height="50" relative="1" as="geometry">
            <mxPoint x="530" y="760" as="sourcePoint" />
            <mxPoint x="490" y="720" as="targetPoint" />
          </mxGeometry>
        </mxCell>
      </root>
    </mxGraphModel>
  </diagram>
  <diagram id="qlf8DNB7y0CizAB07KGm" name="ejercicio 1-4">
    <mxGraphModel dx="880" dy="468" grid="1" gridSize="10" guides="1" tooltips="1" connect="1" arrows="1" fold="1" page="1" pageScale="1" pageWidth="827" pageHeight="1169" math="0" shadow="0">
      <root>
        <mxCell id="0" />
        <mxCell id="1" parent="0" />
        <mxCell id="Acf1thzUZvWfXce7ABy_-1" style="edgeStyle=orthogonalEdgeStyle;rounded=0;orthogonalLoop=1;jettySize=auto;html=1;exitX=0.5;exitY=1;exitDx=0;exitDy=0;entryX=0.5;entryY=0;entryDx=0;entryDy=0;" edge="1" parent="1" target="Acf1thzUZvWfXce7ABy_-3">
          <mxGeometry relative="1" as="geometry">
            <mxPoint x="475" y="150" as="sourcePoint" />
          </mxGeometry>
        </mxCell>
        <mxCell id="Acf1thzUZvWfXce7ABy_-2" style="edgeStyle=orthogonalEdgeStyle;rounded=0;orthogonalLoop=1;jettySize=auto;html=1;exitX=0.5;exitY=1;exitDx=0;exitDy=0;entryX=0.5;entryY=0;entryDx=0;entryDy=0;" edge="1" parent="1" source="Acf1thzUZvWfXce7ABy_-3">
          <mxGeometry relative="1" as="geometry">
            <mxPoint x="475" y="270" as="targetPoint" />
          </mxGeometry>
        </mxCell>
        <mxCell id="Acf1thzUZvWfXce7ABy_-3" value="Defenir N,AB,X,i, const.." style="rounded=0;whiteSpace=wrap;html=1;" vertex="1" parent="1">
          <mxGeometry x="396" y="190" width="158" height="40" as="geometry" />
        </mxCell>
        <mxCell id="Acf1thzUZvWfXce7ABy_-4" style="edgeStyle=orthogonalEdgeStyle;rounded=0;orthogonalLoop=1;jettySize=auto;html=1;exitX=1;exitY=0;exitDx=0;exitDy=0;fillColor=#dae8fc;strokeColor=#6c8ebf;" edge="1" parent="1" source="Acf1thzUZvWfXce7ABy_-6">
          <mxGeometry relative="1" as="geometry">
            <mxPoint x="578.85" y="270" as="targetPoint" />
          </mxGeometry>
        </mxCell>
        <mxCell id="Acf1thzUZvWfXce7ABy_-5" style="edgeStyle=orthogonalEdgeStyle;rounded=0;orthogonalLoop=1;jettySize=auto;html=1;exitX=0.5;exitY=1;exitDx=0;exitDy=0;entryX=0.5;entryY=0;entryDx=0;entryDy=0;fillColor=#f8cecc;strokeColor=#b85450;" edge="1" parent="1" source="Acf1thzUZvWfXce7ABy_-6" target="Acf1thzUZvWfXce7ABy_-9">
          <mxGeometry relative="1" as="geometry" />
        </mxCell>
        <mxCell id="Acf1thzUZvWfXce7ABy_-6" value="ingrese el costo de origen.." style="shape=parallelogram;html=1;strokeWidth=2;perimeter=parallelogramPerimeter;whiteSpace=wrap;rounded=1;arcSize=12;size=0.23;" vertex="1" parent="1">
          <mxGeometry x="383.1" y="280" width="236.9" height="30" as="geometry" />
        </mxCell>
        <mxCell id="Acf1thzUZvWfXce7ABy_-7" style="edgeStyle=orthogonalEdgeStyle;rounded=0;orthogonalLoop=1;jettySize=auto;html=1;exitX=1;exitY=0;exitDx=0;exitDy=0;fillColor=#dae8fc;strokeColor=#6c8ebf;" edge="1" parent="1" source="Acf1thzUZvWfXce7ABy_-9">
          <mxGeometry relative="1" as="geometry">
            <mxPoint x="558.85" y="360" as="targetPoint" />
          </mxGeometry>
        </mxCell>
        <mxCell id="Acf1thzUZvWfXce7ABy_-8" style="edgeStyle=orthogonalEdgeStyle;rounded=0;orthogonalLoop=1;jettySize=auto;html=1;exitX=0.5;exitY=1;exitDx=0;exitDy=0;entryX=0.5;entryY=0;entryDx=0;entryDy=0;" edge="1" parent="1" source="Acf1thzUZvWfXce7ABy_-9" target="Acf1thzUZvWfXce7ABy_-14">
          <mxGeometry relative="1" as="geometry" />
        </mxCell>
        <mxCell id="Acf1thzUZvWfXce7ABy_-9" value="N" style="shape=parallelogram;html=1;strokeWidth=2;perimeter=parallelogramPerimeter;whiteSpace=wrap;rounded=1;arcSize=12;size=0.23;" vertex="1" parent="1">
          <mxGeometry x="444" y="340" width="81.1" height="30" as="geometry" />
        </mxCell>
        <mxCell id="Acf1thzUZvWfXce7ABy_-12" style="edgeStyle=orthogonalEdgeStyle;rounded=0;orthogonalLoop=1;jettySize=auto;html=1;exitX=1;exitY=0;exitDx=0;exitDy=0;fillColor=#dae8fc;strokeColor=#6c8ebf;" edge="1" parent="1" source="Acf1thzUZvWfXce7ABy_-14">
          <mxGeometry relative="1" as="geometry">
            <mxPoint x="575.3" y="400" as="targetPoint" />
          </mxGeometry>
        </mxCell>
        <mxCell id="Acf1thzUZvWfXce7ABy_-13" style="edgeStyle=orthogonalEdgeStyle;rounded=0;orthogonalLoop=1;jettySize=auto;html=1;exitX=0.5;exitY=1;exitDx=0;exitDy=0;entryX=0.5;entryY=0;entryDx=0;entryDy=0;fillColor=#f8cecc;strokeColor=#b85450;" edge="1" parent="1" source="Acf1thzUZvWfXce7ABy_-14" target="Acf1thzUZvWfXce7ABy_-16">
          <mxGeometry relative="1" as="geometry" />
        </mxCell>
        <mxCell id="Acf1thzUZvWfXce7ABy_-14" value="ingrrese el valor de A" style="shape=parallelogram;html=1;strokeWidth=2;perimeter=parallelogramPerimeter;whiteSpace=wrap;rounded=1;arcSize=12;size=0.23;" vertex="1" parent="1">
          <mxGeometry x="379.55" y="410" width="202.9" height="30" as="geometry" />
        </mxCell>
        <mxCell id="Acf1thzUZvWfXce7ABy_-15" style="edgeStyle=orthogonalEdgeStyle;rounded=0;orthogonalLoop=1;jettySize=auto;html=1;exitX=1;exitY=0;exitDx=0;exitDy=0;fillColor=#dae8fc;strokeColor=#6c8ebf;" edge="1" parent="1" source="Acf1thzUZvWfXce7ABy_-16">
          <mxGeometry relative="1" as="geometry">
            <mxPoint x="555.3" y="490" as="targetPoint" />
          </mxGeometry>
        </mxCell>
        <mxCell id="Acf1thzUZvWfXce7ABy_-16" value="A" style="shape=parallelogram;html=1;strokeWidth=2;perimeter=parallelogramPerimeter;whiteSpace=wrap;rounded=1;arcSize=12;size=0.23;" vertex="1" parent="1">
          <mxGeometry x="440.45" y="470" width="81.1" height="30" as="geometry" />
        </mxCell>
        <mxCell id="Acf1thzUZvWfXce7ABy_-17" style="edgeStyle=orthogonalEdgeStyle;rounded=0;orthogonalLoop=1;jettySize=auto;html=1;exitX=1;exitY=0;exitDx=0;exitDy=0;fillColor=#dae8fc;strokeColor=#6c8ebf;" edge="1" parent="1" source="Acf1thzUZvWfXce7ABy_-19">
          <mxGeometry relative="1" as="geometry">
            <mxPoint x="565.75" y="530" as="targetPoint" />
          </mxGeometry>
        </mxCell>
        <mxCell id="Acf1thzUZvWfXce7ABy_-18" style="edgeStyle=orthogonalEdgeStyle;rounded=0;orthogonalLoop=1;jettySize=auto;html=1;exitX=0.5;exitY=1;exitDx=0;exitDy=0;entryX=0.5;entryY=0;entryDx=0;entryDy=0;fillColor=#f8cecc;strokeColor=#b85450;" edge="1" parent="1" source="Acf1thzUZvWfXce7ABy_-19" target="Acf1thzUZvWfXce7ABy_-21">
          <mxGeometry relative="1" as="geometry" />
        </mxCell>
        <mxCell id="Acf1thzUZvWfXce7ABy_-19" value="Ingrese el valor de B" style="shape=parallelogram;html=1;strokeWidth=2;perimeter=parallelogramPerimeter;whiteSpace=wrap;rounded=1;arcSize=12;size=0.23;" vertex="1" parent="1">
          <mxGeometry x="370" y="540" width="202.9" height="30" as="geometry" />
        </mxCell>
        <mxCell id="Acf1thzUZvWfXce7ABy_-20" style="edgeStyle=orthogonalEdgeStyle;rounded=0;orthogonalLoop=1;jettySize=auto;html=1;exitX=1;exitY=0;exitDx=0;exitDy=0;fillColor=#dae8fc;strokeColor=#6c8ebf;" edge="1" parent="1" source="Acf1thzUZvWfXce7ABy_-21">
          <mxGeometry relative="1" as="geometry">
            <mxPoint x="545.75" y="620" as="targetPoint" />
          </mxGeometry>
        </mxCell>
        <mxCell id="MaETQjX4UCZRF20lrd0q-14" style="edgeStyle=orthogonalEdgeStyle;rounded=0;orthogonalLoop=1;jettySize=auto;html=1;exitX=0.5;exitY=1;exitDx=0;exitDy=0;entryX=0.5;entryY=0;entryDx=0;entryDy=0;" edge="1" parent="1" source="Acf1thzUZvWfXce7ABy_-21" target="MaETQjX4UCZRF20lrd0q-5">
          <mxGeometry relative="1" as="geometry" />
        </mxCell>
        <mxCell id="Acf1thzUZvWfXce7ABy_-21" value="B" style="shape=parallelogram;html=1;strokeWidth=2;perimeter=parallelogramPerimeter;whiteSpace=wrap;rounded=1;arcSize=12;size=0.23;" vertex="1" parent="1">
          <mxGeometry x="430.9" y="600" width="81.1" height="30" as="geometry" />
        </mxCell>
        <mxCell id="Acf1thzUZvWfXce7ABy_-22" style="edgeStyle=orthogonalEdgeStyle;rounded=0;orthogonalLoop=1;jettySize=auto;html=1;exitX=0.5;exitY=1;exitDx=0;exitDy=0;entryX=0.542;entryY=-0.033;entryDx=0;entryDy=0;entryPerimeter=0;" edge="1" parent="1" source="Acf1thzUZvWfXce7ABy_-16" target="Acf1thzUZvWfXce7ABy_-19">
          <mxGeometry relative="1" as="geometry" />
        </mxCell>
        <mxCell id="Acf1thzUZvWfXce7ABy_-23" value="F" style="rounded=0;whiteSpace=wrap;html=1;" vertex="1" parent="1">
          <mxGeometry x="315.45" y="1010" width="40" height="30" as="geometry" />
        </mxCell>
        <mxCell id="Acf1thzUZvWfXce7ABy_-24" value="v" style="rounded=0;whiteSpace=wrap;html=1;" vertex="1" parent="1">
          <mxGeometry x="585.45" y="1020" width="30" height="30" as="geometry" />
        </mxCell>
        <mxCell id="MaETQjX4UCZRF20lrd0q-18" style="edgeStyle=orthogonalEdgeStyle;rounded=0;orthogonalLoop=1;jettySize=auto;html=1;" edge="1" parent="1" source="_XkO86z-cLLKsoK2xMlx-1">
          <mxGeometry relative="1" as="geometry">
            <mxPoint x="710" y="1140" as="targetPoint" />
          </mxGeometry>
        </mxCell>
        <mxCell id="MaETQjX4UCZRF20lrd0q-19" style="edgeStyle=orthogonalEdgeStyle;rounded=0;orthogonalLoop=1;jettySize=auto;html=1;" edge="1" parent="1" source="_XkO86z-cLLKsoK2xMlx-1">
          <mxGeometry relative="1" as="geometry">
            <mxPoint x="240" y="1300" as="targetPoint" />
          </mxGeometry>
        </mxCell>
        <mxCell id="_XkO86z-cLLKsoK2xMlx-1" value="B=0" style="html=1;whiteSpace=wrap;aspect=fixed;shape=isoRectangle;" vertex="1" parent="1">
          <mxGeometry x="409.78" y="1030" width="122.25" height="73.35" as="geometry" />
        </mxCell>
        <mxCell id="MaETQjX4UCZRF20lrd0q-1" value="Algoritmo resolver divison entera&amp;nbsp;" style="rounded=1;whiteSpace=wrap;html=1;" vertex="1" parent="1">
          <mxGeometry x="260" y="120" width="390" height="30" as="geometry" />
        </mxCell>
        <mxCell id="MaETQjX4UCZRF20lrd0q-4" style="edgeStyle=orthogonalEdgeStyle;rounded=0;orthogonalLoop=1;jettySize=auto;html=1;exitX=0.5;exitY=1;exitDx=0;exitDy=0;entryX=0.5;entryY=0;entryDx=0;entryDy=0;fillColor=#f8cecc;strokeColor=#b85450;" edge="1" parent="1" source="MaETQjX4UCZRF20lrd0q-5" target="MaETQjX4UCZRF20lrd0q-7">
          <mxGeometry relative="1" as="geometry" />
        </mxCell>
        <mxCell id="MaETQjX4UCZRF20lrd0q-5" value="Ingre el porcentaje" style="shape=parallelogram;html=1;strokeWidth=2;perimeter=parallelogramPerimeter;whiteSpace=wrap;rounded=1;arcSize=12;size=0.23;" vertex="1" parent="1">
          <mxGeometry x="373.55" y="670" width="202.9" height="30" as="geometry" />
        </mxCell>
        <mxCell id="MaETQjX4UCZRF20lrd0q-6" style="edgeStyle=orthogonalEdgeStyle;rounded=0;orthogonalLoop=1;jettySize=auto;html=1;exitX=1;exitY=0;exitDx=0;exitDy=0;fillColor=#dae8fc;strokeColor=#6c8ebf;" edge="1" parent="1" source="MaETQjX4UCZRF20lrd0q-7">
          <mxGeometry relative="1" as="geometry">
            <mxPoint x="549.3" y="750" as="targetPoint" />
          </mxGeometry>
        </mxCell>
        <mxCell id="MaETQjX4UCZRF20lrd0q-7" value="X" style="shape=parallelogram;html=1;strokeWidth=2;perimeter=parallelogramPerimeter;whiteSpace=wrap;rounded=1;arcSize=12;size=0.23;" vertex="1" parent="1">
          <mxGeometry x="434.45" y="730" width="81.1" height="30" as="geometry" />
        </mxCell>
        <mxCell id="MaETQjX4UCZRF20lrd0q-8" style="edgeStyle=orthogonalEdgeStyle;rounded=0;orthogonalLoop=1;jettySize=auto;html=1;exitX=1;exitY=0;exitDx=0;exitDy=0;fillColor=#dae8fc;strokeColor=#6c8ebf;" edge="1" parent="1">
          <mxGeometry relative="1" as="geometry">
            <mxPoint x="559.75" y="790" as="targetPoint" />
            <mxPoint x="566.9000000000001" y="800" as="sourcePoint" />
          </mxGeometry>
        </mxCell>
        <mxCell id="MaETQjX4UCZRF20lrd0q-9" style="edgeStyle=orthogonalEdgeStyle;rounded=0;orthogonalLoop=1;jettySize=auto;html=1;exitX=0.5;exitY=1;exitDx=0;exitDy=0;entryX=0.5;entryY=0;entryDx=0;entryDy=0;fillColor=#f8cecc;strokeColor=#b85450;" edge="1" parent="1" target="MaETQjX4UCZRF20lrd0q-12">
          <mxGeometry relative="1" as="geometry">
            <mxPoint x="465.45000000000005" y="830" as="sourcePoint" />
          </mxGeometry>
        </mxCell>
        <mxCell id="MaETQjX4UCZRF20lrd0q-10" value="ingre el porcentaje" style="shape=parallelogram;html=1;strokeWidth=2;perimeter=parallelogramPerimeter;whiteSpace=wrap;rounded=1;arcSize=12;size=0.23;" vertex="1" parent="1">
          <mxGeometry x="373.55" y="800" width="202.9" height="30" as="geometry" />
        </mxCell>
        <mxCell id="MaETQjX4UCZRF20lrd0q-11" style="edgeStyle=orthogonalEdgeStyle;rounded=0;orthogonalLoop=1;jettySize=auto;html=1;exitX=1;exitY=0;exitDx=0;exitDy=0;fillColor=#dae8fc;strokeColor=#6c8ebf;" edge="1" parent="1" source="MaETQjX4UCZRF20lrd0q-12">
          <mxGeometry relative="1" as="geometry">
            <mxPoint x="539.75" y="880" as="targetPoint" />
          </mxGeometry>
        </mxCell>
        <mxCell id="MaETQjX4UCZRF20lrd0q-12" value="i" style="shape=parallelogram;html=1;strokeWidth=2;perimeter=parallelogramPerimeter;whiteSpace=wrap;rounded=1;arcSize=12;size=0.23;" vertex="1" parent="1">
          <mxGeometry x="424.9" y="860" width="81.1" height="30" as="geometry" />
        </mxCell>
        <mxCell id="MaETQjX4UCZRF20lrd0q-13" style="edgeStyle=orthogonalEdgeStyle;rounded=0;orthogonalLoop=1;jettySize=auto;html=1;exitX=0.5;exitY=1;exitDx=0;exitDy=0;entryX=0.542;entryY=-0.033;entryDx=0;entryDy=0;entryPerimeter=0;" edge="1" parent="1" source="MaETQjX4UCZRF20lrd0q-7">
          <mxGeometry relative="1" as="geometry">
            <mxPoint x="473.97180000000003" y="799.01" as="targetPoint" />
          </mxGeometry>
        </mxCell>
        <mxCell id="MaETQjX4UCZRF20lrd0q-15" value="Costo del descuento N" style="rounded=0;whiteSpace=wrap;html=1;" vertex="1" parent="1">
          <mxGeometry x="322.23" y="920" width="276.45" height="30" as="geometry" />
        </mxCell>
        <mxCell id="MaETQjX4UCZRF20lrd0q-16" style="edgeStyle=orthogonalEdgeStyle;rounded=0;orthogonalLoop=1;jettySize=auto;html=1;exitX=0.5;exitY=1;exitDx=0;exitDy=0;entryX=0.509;entryY=0.041;entryDx=0;entryDy=0;entryPerimeter=0;" edge="1" parent="1" source="MaETQjX4UCZRF20lrd0q-15" target="_XkO86z-cLLKsoK2xMlx-1">
          <mxGeometry relative="1" as="geometry" />
        </mxCell>
        <mxCell id="MaETQjX4UCZRF20lrd0q-20" style="edgeStyle=orthogonalEdgeStyle;rounded=0;orthogonalLoop=1;jettySize=auto;html=1;exitX=0.5;exitY=1;exitDx=0;exitDy=0;" edge="1" parent="1" source="MaETQjX4UCZRF20lrd0q-17">
          <mxGeometry relative="1" as="geometry">
            <mxPoint x="698" y="1300" as="targetPoint" />
          </mxGeometry>
        </mxCell>
        <mxCell id="MaETQjX4UCZRF20lrd0q-17" value="Costo del descuento&amp;nbsp;" style="rounded=0;whiteSpace=wrap;html=1;" vertex="1" parent="1">
          <mxGeometry x="560" y="1139" width="276.45" height="30" as="geometry" />
        </mxCell>
        <mxCell id="MaETQjX4UCZRF20lrd0q-21" value="" style="endArrow=none;html=1;rounded=0;" edge="1" parent="1">
          <mxGeometry width="50" height="50" relative="1" as="geometry">
            <mxPoint x="240" y="1290" as="sourcePoint" />
            <mxPoint x="700" y="1300" as="targetPoint" />
          </mxGeometry>
        </mxCell>
        <mxCell id="MaETQjX4UCZRF20lrd0q-22" value="" style="endArrow=classic;html=1;rounded=0;" edge="1" parent="1">
          <mxGeometry width="50" height="50" relative="1" as="geometry">
            <mxPoint x="470" y="1300" as="sourcePoint" />
            <mxPoint x="470" y="1400" as="targetPoint" />
          </mxGeometry>
        </mxCell>
        <mxCell id="MaETQjX4UCZRF20lrd0q-23" value="F" style="rounded=0;whiteSpace=wrap;html=1;" vertex="1" parent="1">
          <mxGeometry x="315.45" y="1380" width="40" height="30" as="geometry" />
        </mxCell>
        <mxCell id="MaETQjX4UCZRF20lrd0q-24" value="v" style="rounded=0;whiteSpace=wrap;html=1;" vertex="1" parent="1">
          <mxGeometry x="585.45" y="1390" width="30" height="30" as="geometry" />
        </mxCell>
        <mxCell id="MaETQjX4UCZRF20lrd0q-25" style="edgeStyle=orthogonalEdgeStyle;rounded=0;orthogonalLoop=1;jettySize=auto;html=1;" edge="1" parent="1" source="MaETQjX4UCZRF20lrd0q-26">
          <mxGeometry relative="1" as="geometry">
            <mxPoint x="710" y="1510" as="targetPoint" />
          </mxGeometry>
        </mxCell>
        <mxCell id="MaETQjX4UCZRF20lrd0q-28" style="edgeStyle=orthogonalEdgeStyle;rounded=0;orthogonalLoop=1;jettySize=auto;html=1;" edge="1" parent="1" source="MaETQjX4UCZRF20lrd0q-26">
          <mxGeometry relative="1" as="geometry">
            <mxPoint x="240" y="1690" as="targetPoint" />
          </mxGeometry>
        </mxCell>
        <mxCell id="MaETQjX4UCZRF20lrd0q-26" value="B=0" style="html=1;whiteSpace=wrap;aspect=fixed;shape=isoRectangle;" vertex="1" parent="1">
          <mxGeometry x="409.7799999999999" y="1400" width="122.25" height="73.35" as="geometry" />
        </mxCell>
        <mxCell id="MaETQjX4UCZRF20lrd0q-29" style="edgeStyle=orthogonalEdgeStyle;rounded=0;orthogonalLoop=1;jettySize=auto;html=1;exitX=0.5;exitY=1;exitDx=0;exitDy=0;" edge="1" parent="1" source="MaETQjX4UCZRF20lrd0q-27">
          <mxGeometry relative="1" as="geometry">
            <mxPoint x="698" y="1690" as="targetPoint" />
          </mxGeometry>
        </mxCell>
        <mxCell id="MaETQjX4UCZRF20lrd0q-27" value="Costo del descuento&amp;nbsp;" style="rounded=0;whiteSpace=wrap;html=1;" vertex="1" parent="1">
          <mxGeometry x="560" y="1509" width="276.45" height="30" as="geometry" />
        </mxCell>
        <mxCell id="MaETQjX4UCZRF20lrd0q-30" value="" style="endArrow=none;html=1;rounded=0;" edge="1" parent="1">
          <mxGeometry width="50" height="50" relative="1" as="geometry">
            <mxPoint x="235.45" y="1690" as="sourcePoint" />
            <mxPoint x="695.45" y="1690" as="targetPoint" />
          </mxGeometry>
        </mxCell>
        <mxCell id="MaETQjX4UCZRF20lrd0q-31" value="E costo de compra de..." style="shape=parallelogram;perimeter=parallelogramPerimeter;whiteSpace=wrap;html=1;fixedSize=1;" vertex="1" parent="1">
          <mxGeometry x="379.55" y="1754" width="220.45" height="26" as="geometry" />
        </mxCell>
        <mxCell id="MaETQjX4UCZRF20lrd0q-32" value="" style="endArrow=classic;html=1;rounded=0;entryX=0.374;entryY=0.077;entryDx=0;entryDy=0;entryPerimeter=0;" edge="1" parent="1" target="MaETQjX4UCZRF20lrd0q-31">
          <mxGeometry width="50" height="50" relative="1" as="geometry">
            <mxPoint x="460" y="1690" as="sourcePoint" />
            <mxPoint x="510" y="1730" as="targetPoint" />
          </mxGeometry>
        </mxCell>
        <mxCell id="57rvoH4iiocHKSECTO5j-1" value="finalgoritmo" style="rounded=1;whiteSpace=wrap;html=1;" vertex="1" parent="1">
          <mxGeometry x="414" y="1830" width="120" height="26" as="geometry" />
        </mxCell>
        <mxCell id="57rvoH4iiocHKSECTO5j-2" style="edgeStyle=orthogonalEdgeStyle;rounded=0;orthogonalLoop=1;jettySize=auto;html=1;exitX=0.5;exitY=1;exitDx=0;exitDy=0;entryX=0.608;entryY=0.038;entryDx=0;entryDy=0;entryPerimeter=0;" edge="1" parent="1" source="MaETQjX4UCZRF20lrd0q-31" target="57rvoH4iiocHKSECTO5j-1">
          <mxGeometry relative="1" as="geometry" />
        </mxCell>
      </root>
    </mxGraphModel>
  </diagram>
  <diagram id="lxx8D3efU2-Q276uQ6fd" name="ejercicio 1-5">
    <mxGraphModel dx="1707" dy="468" grid="1" gridSize="10" guides="1" tooltips="1" connect="1" arrows="1" fold="1" page="1" pageScale="1" pageWidth="827" pageHeight="1169" math="0" shadow="0">
      <root>
        <mxCell id="0" />
        <mxCell id="1" parent="0" />
        <mxCell id="SIZtZkqUD8CzAILTwiau-1" style="edgeStyle=orthogonalEdgeStyle;rounded=0;orthogonalLoop=1;jettySize=auto;html=1;exitX=0.5;exitY=1;exitDx=0;exitDy=0;entryX=0.5;entryY=0;entryDx=0;entryDy=0;" edge="1" parent="1" target="SIZtZkqUD8CzAILTwiau-3">
          <mxGeometry relative="1" as="geometry">
            <mxPoint x="465" y="70" as="sourcePoint" />
          </mxGeometry>
        </mxCell>
        <mxCell id="SIZtZkqUD8CzAILTwiau-2" style="edgeStyle=orthogonalEdgeStyle;rounded=0;orthogonalLoop=1;jettySize=auto;html=1;exitX=0.5;exitY=1;exitDx=0;exitDy=0;entryX=0.5;entryY=0;entryDx=0;entryDy=0;" edge="1" parent="1" source="SIZtZkqUD8CzAILTwiau-3">
          <mxGeometry relative="1" as="geometry">
            <mxPoint x="465" y="190" as="targetPoint" />
          </mxGeometry>
        </mxCell>
        <mxCell id="SIZtZkqUD8CzAILTwiau-3" value="Definir C como caracter" style="rounded=0;whiteSpace=wrap;html=1;" vertex="1" parent="1">
          <mxGeometry x="386" y="110" width="158" height="40" as="geometry" />
        </mxCell>
        <mxCell id="SIZtZkqUD8CzAILTwiau-4" style="edgeStyle=orthogonalEdgeStyle;rounded=0;orthogonalLoop=1;jettySize=auto;html=1;exitX=1;exitY=0;exitDx=0;exitDy=0;fillColor=#dae8fc;strokeColor=#6c8ebf;" edge="1" parent="1" source="SIZtZkqUD8CzAILTwiau-6">
          <mxGeometry relative="1" as="geometry">
            <mxPoint x="568.85" y="190" as="targetPoint" />
          </mxGeometry>
        </mxCell>
        <mxCell id="SIZtZkqUD8CzAILTwiau-5" style="edgeStyle=orthogonalEdgeStyle;rounded=0;orthogonalLoop=1;jettySize=auto;html=1;exitX=0.5;exitY=1;exitDx=0;exitDy=0;entryX=0.5;entryY=0;entryDx=0;entryDy=0;fillColor=#f8cecc;strokeColor=#b85450;" edge="1" parent="1" source="SIZtZkqUD8CzAILTwiau-6" target="SIZtZkqUD8CzAILTwiau-8">
          <mxGeometry relative="1" as="geometry" />
        </mxCell>
        <mxCell id="SIZtZkqUD8CzAILTwiau-6" value="ingresar caracter" style="shape=parallelogram;html=1;strokeWidth=2;perimeter=parallelogramPerimeter;whiteSpace=wrap;rounded=1;arcSize=12;size=0.23;" vertex="1" parent="1">
          <mxGeometry x="373.1" y="200" width="236.9" height="30" as="geometry" />
        </mxCell>
        <mxCell id="SIZtZkqUD8CzAILTwiau-7" style="edgeStyle=orthogonalEdgeStyle;rounded=0;orthogonalLoop=1;jettySize=auto;html=1;exitX=1;exitY=0;exitDx=0;exitDy=0;fillColor=#dae8fc;strokeColor=#6c8ebf;" edge="1" parent="1" source="SIZtZkqUD8CzAILTwiau-8">
          <mxGeometry relative="1" as="geometry">
            <mxPoint x="548.85" y="280" as="targetPoint" />
          </mxGeometry>
        </mxCell>
        <mxCell id="SIZtZkqUD8CzAILTwiau-8" value="c" style="shape=parallelogram;html=1;strokeWidth=2;perimeter=parallelogramPerimeter;whiteSpace=wrap;rounded=1;arcSize=12;size=0.23;" vertex="1" parent="1">
          <mxGeometry x="434" y="260" width="81.1" height="30" as="geometry" />
        </mxCell>
        <mxCell id="SIZtZkqUD8CzAILTwiau-9" value="Algoritmo resolver divison entera&amp;nbsp;" style="rounded=1;whiteSpace=wrap;html=1;" vertex="1" parent="1">
          <mxGeometry x="250" y="40" width="390" height="30" as="geometry" />
        </mxCell>
        <mxCell id="7XLXjuEuTvh6_Vv65e6M-1" value="F" style="rounded=0;whiteSpace=wrap;html=1;" vertex="1" parent="1">
          <mxGeometry x="306" y="340" width="40" height="30" as="geometry" />
        </mxCell>
        <mxCell id="7XLXjuEuTvh6_Vv65e6M-2" value="v" style="rounded=0;whiteSpace=wrap;html=1;" vertex="1" parent="1">
          <mxGeometry x="576" y="350" width="30" height="30" as="geometry" />
        </mxCell>
        <mxCell id="7XLXjuEuTvh6_Vv65e6M-3" style="edgeStyle=orthogonalEdgeStyle;rounded=0;orthogonalLoop=1;jettySize=auto;html=1;" edge="1" parent="1" source="7XLXjuEuTvh6_Vv65e6M-4">
          <mxGeometry relative="1" as="geometry">
            <mxPoint x="700.55" y="470" as="targetPoint" />
          </mxGeometry>
        </mxCell>
        <mxCell id="TVAvOU8x4YcR2QMk-xYJ-12" style="edgeStyle=orthogonalEdgeStyle;rounded=0;orthogonalLoop=1;jettySize=auto;html=1;" edge="1" parent="1" source="7XLXjuEuTvh6_Vv65e6M-4" target="TVAvOU8x4YcR2QMk-xYJ-3">
          <mxGeometry relative="1" as="geometry" />
        </mxCell>
        <mxCell id="7XLXjuEuTvh6_Vv65e6M-4" value="C&amp;gt;=&quot;A&#39;&amp;nbsp; &amp;nbsp;Y&amp;nbsp; &amp;nbsp;C&amp;lt;=&#39;Z&#39;" style="html=1;whiteSpace=wrap;aspect=fixed;shape=isoRectangle;" vertex="1" parent="1">
          <mxGeometry x="400.33" y="360" width="149.67" height="89.8" as="geometry" />
        </mxCell>
        <mxCell id="AKqQJS3H7hRkLbBo67Zf-2" style="edgeStyle=orthogonalEdgeStyle;rounded=0;orthogonalLoop=1;jettySize=auto;html=1;exitX=0.5;exitY=1;exitDx=0;exitDy=0;" edge="1" parent="1" source="7XLXjuEuTvh6_Vv65e6M-6">
          <mxGeometry relative="1" as="geometry">
            <mxPoint x="694" y="840" as="targetPoint" />
          </mxGeometry>
        </mxCell>
        <mxCell id="7XLXjuEuTvh6_Vv65e6M-6" value="lower-case alphabet" style="shape=parallelogram;html=1;strokeWidth=2;perimeter=parallelogramPerimeter;whiteSpace=wrap;rounded=1;arcSize=12;size=0.23;" vertex="1" parent="1">
          <mxGeometry x="576" y="470" width="236.9" height="30" as="geometry" />
        </mxCell>
        <mxCell id="7XLXjuEuTvh6_Vv65e6M-7" style="edgeStyle=orthogonalEdgeStyle;rounded=0;orthogonalLoop=1;jettySize=auto;html=1;exitX=0.5;exitY=1;exitDx=0;exitDy=0;entryX=0.529;entryY=0.027;entryDx=0;entryDy=0;entryPerimeter=0;" edge="1" parent="1" source="SIZtZkqUD8CzAILTwiau-8" target="7XLXjuEuTvh6_Vv65e6M-4">
          <mxGeometry relative="1" as="geometry" />
        </mxCell>
        <mxCell id="TVAvOU8x4YcR2QMk-xYJ-1" style="edgeStyle=orthogonalEdgeStyle;rounded=0;orthogonalLoop=1;jettySize=auto;html=1;entryX=0.5;entryY=0;entryDx=0;entryDy=0;" edge="1" parent="1" source="TVAvOU8x4YcR2QMk-xYJ-3" target="TVAvOU8x4YcR2QMk-xYJ-7">
          <mxGeometry relative="1" as="geometry" />
        </mxCell>
        <mxCell id="TVAvOU8x4YcR2QMk-xYJ-2" style="edgeStyle=orthogonalEdgeStyle;rounded=0;orthogonalLoop=1;jettySize=auto;html=1;entryX=0.5;entryY=0;entryDx=0;entryDy=0;" edge="1" parent="1" source="TVAvOU8x4YcR2QMk-xYJ-3">
          <mxGeometry relative="1" as="geometry">
            <mxPoint x="-150" y="560" as="targetPoint" />
          </mxGeometry>
        </mxCell>
        <mxCell id="TVAvOU8x4YcR2QMk-xYJ-3" value="C&amp;gt;=&#39;A&#39;&amp;nbsp; Y&amp;nbsp; C&amp;lt;=&#39;Z&#39;" style="html=1;whiteSpace=wrap;aspect=fixed;shape=isoRectangle;" vertex="1" parent="1">
          <mxGeometry x="50" y="455.43" width="124.28" height="74.57" as="geometry" />
        </mxCell>
        <mxCell id="TVAvOU8x4YcR2QMk-xYJ-4" value="F" style="rounded=0;whiteSpace=wrap;html=1;" vertex="1" parent="1">
          <mxGeometry x="-10" y="440" width="40" height="30" as="geometry" />
        </mxCell>
        <mxCell id="TVAvOU8x4YcR2QMk-xYJ-5" value="v" style="rounded=0;whiteSpace=wrap;html=1;" vertex="1" parent="1">
          <mxGeometry x="220" y="447.1" width="30" height="30" as="geometry" />
        </mxCell>
        <mxCell id="TVAvOU8x4YcR2QMk-xYJ-6" style="edgeStyle=orthogonalEdgeStyle;rounded=0;orthogonalLoop=1;jettySize=auto;html=1;exitX=0.5;exitY=1;exitDx=0;exitDy=0;" edge="1" parent="1" source="TVAvOU8x4YcR2QMk-xYJ-7">
          <mxGeometry relative="1" as="geometry">
            <mxPoint x="329.9999999999999" y="710" as="targetPoint" />
          </mxGeometry>
        </mxCell>
        <mxCell id="TVAvOU8x4YcR2QMk-xYJ-7" value="upper case&amp;nbsp; alphatic" style="shape=parallelogram;html=1;strokeWidth=2;perimeter=parallelogramPerimeter;whiteSpace=wrap;rounded=1;arcSize=12;size=0.23;" vertex="1" parent="1">
          <mxGeometry x="220" y="550" width="202.9" height="30" as="geometry" />
        </mxCell>
        <mxCell id="TVAvOU8x4YcR2QMk-xYJ-9" style="edgeStyle=orthogonalEdgeStyle;rounded=0;orthogonalLoop=1;jettySize=auto;html=1;exitX=0.5;exitY=1;exitDx=0;exitDy=0;" edge="1" parent="1" source="TVAvOU8x4YcR2QMk-xYJ-13">
          <mxGeometry relative="1" as="geometry">
            <mxPoint x="-161.0000000000001" y="710" as="targetPoint" />
            <mxPoint x="-161.0000000000001" y="640" as="sourcePoint" />
          </mxGeometry>
        </mxCell>
        <mxCell id="TVAvOU8x4YcR2QMk-xYJ-11" value="" style="endArrow=none;html=1;rounded=0;" edge="1" parent="1">
          <mxGeometry width="50" height="50" relative="1" as="geometry">
            <mxPoint x="-160.0000000000001" y="710" as="sourcePoint" />
            <mxPoint x="329.9999999999999" y="710" as="targetPoint" />
          </mxGeometry>
        </mxCell>
        <mxCell id="TVAvOU8x4YcR2QMk-xYJ-13" value="Non alphabetic charac" style="shape=parallelogram;html=1;strokeWidth=2;perimeter=parallelogramPerimeter;whiteSpace=wrap;rounded=1;arcSize=12;size=0.23;" vertex="1" parent="1">
          <mxGeometry x="-250" y="560" width="240" height="30" as="geometry" />
        </mxCell>
        <mxCell id="AKqQJS3H7hRkLbBo67Zf-1" value="finalgoritmo" style="rounded=1;whiteSpace=wrap;html=1;" vertex="1" parent="1">
          <mxGeometry x="360" y="880" width="120" height="26" as="geometry" />
        </mxCell>
        <mxCell id="AKqQJS3H7hRkLbBo67Zf-3" value="" style="endArrow=classic;html=1;rounded=0;" edge="1" parent="1">
          <mxGeometry width="50" height="50" relative="1" as="geometry">
            <mxPoint x="120" y="710" as="sourcePoint" />
            <mxPoint x="120" y="840" as="targetPoint" />
          </mxGeometry>
        </mxCell>
        <mxCell id="AKqQJS3H7hRkLbBo67Zf-4" value="" style="endArrow=none;html=1;rounded=0;" edge="1" parent="1">
          <mxGeometry width="50" height="50" relative="1" as="geometry">
            <mxPoint x="120" y="830" as="sourcePoint" />
            <mxPoint x="690" y="840" as="targetPoint" />
          </mxGeometry>
        </mxCell>
        <mxCell id="AKqQJS3H7hRkLbBo67Zf-5" value="" style="endArrow=classic;html=1;rounded=0;" edge="1" parent="1" target="AKqQJS3H7hRkLbBo67Zf-1">
          <mxGeometry width="50" height="50" relative="1" as="geometry">
            <mxPoint x="410" y="830" as="sourcePoint" />
            <mxPoint x="400" y="720" as="targetPoint" />
          </mxGeometry>
        </mxCell>
      </root>
    </mxGraphModel>
  </diagram>
  <diagram id="PQoOXPf7DrxY2-RCzfWt" name="ejercicio 1-6">
    <mxGraphModel dx="880" dy="468" grid="1" gridSize="10" guides="1" tooltips="1" connect="1" arrows="1" fold="1" page="1" pageScale="1" pageWidth="827" pageHeight="1169" math="0" shadow="0">
      <root>
        <mxCell id="0" />
        <mxCell id="1" parent="0" />
        <mxCell id="cXI0Yz1Tb5PyKuHmlHka-1" style="edgeStyle=orthogonalEdgeStyle;rounded=0;orthogonalLoop=1;jettySize=auto;html=1;exitX=0.5;exitY=1;exitDx=0;exitDy=0;entryX=0.5;entryY=0;entryDx=0;entryDy=0;" edge="1" parent="1" target="cXI0Yz1Tb5PyKuHmlHka-3">
          <mxGeometry relative="1" as="geometry">
            <mxPoint x="585" y="70" as="sourcePoint" />
          </mxGeometry>
        </mxCell>
        <mxCell id="cXI0Yz1Tb5PyKuHmlHka-2" style="edgeStyle=orthogonalEdgeStyle;rounded=0;orthogonalLoop=1;jettySize=auto;html=1;exitX=0.5;exitY=1;exitDx=0;exitDy=0;entryX=0.5;entryY=0;entryDx=0;entryDy=0;" edge="1" parent="1" source="cXI0Yz1Tb5PyKuHmlHka-3">
          <mxGeometry relative="1" as="geometry">
            <mxPoint x="585" y="190" as="targetPoint" />
          </mxGeometry>
        </mxCell>
        <mxCell id="cXI0Yz1Tb5PyKuHmlHka-3" value="Definir dia como entero&amp;nbsp;" style="rounded=0;whiteSpace=wrap;html=1;" vertex="1" parent="1">
          <mxGeometry x="506" y="110" width="158" height="40" as="geometry" />
        </mxCell>
        <mxCell id="cXI0Yz1Tb5PyKuHmlHka-4" style="edgeStyle=orthogonalEdgeStyle;rounded=0;orthogonalLoop=1;jettySize=auto;html=1;exitX=1;exitY=0;exitDx=0;exitDy=0;fillColor=#dae8fc;strokeColor=#6c8ebf;" edge="1" parent="1" source="cXI0Yz1Tb5PyKuHmlHka-6">
          <mxGeometry relative="1" as="geometry">
            <mxPoint x="688.85" y="190" as="targetPoint" />
          </mxGeometry>
        </mxCell>
        <mxCell id="cXI0Yz1Tb5PyKuHmlHka-5" style="edgeStyle=orthogonalEdgeStyle;rounded=0;orthogonalLoop=1;jettySize=auto;html=1;exitX=0.5;exitY=1;exitDx=0;exitDy=0;entryX=0.5;entryY=0;entryDx=0;entryDy=0;fillColor=#f8cecc;strokeColor=#b85450;" edge="1" parent="1" source="cXI0Yz1Tb5PyKuHmlHka-6" target="cXI0Yz1Tb5PyKuHmlHka-8">
          <mxGeometry relative="1" as="geometry" />
        </mxCell>
        <mxCell id="cXI0Yz1Tb5PyKuHmlHka-6" value="ingrese el numero de dia" style="shape=parallelogram;html=1;strokeWidth=2;perimeter=parallelogramPerimeter;whiteSpace=wrap;rounded=1;arcSize=12;size=0.23;" vertex="1" parent="1">
          <mxGeometry x="493.1" y="200" width="236.9" height="30" as="geometry" />
        </mxCell>
        <mxCell id="cXI0Yz1Tb5PyKuHmlHka-7" style="edgeStyle=orthogonalEdgeStyle;rounded=0;orthogonalLoop=1;jettySize=auto;html=1;exitX=1;exitY=0;exitDx=0;exitDy=0;fillColor=#dae8fc;strokeColor=#6c8ebf;" edge="1" parent="1" source="cXI0Yz1Tb5PyKuHmlHka-8">
          <mxGeometry relative="1" as="geometry">
            <mxPoint x="668.85" y="280" as="targetPoint" />
          </mxGeometry>
        </mxCell>
        <mxCell id="cXI0Yz1Tb5PyKuHmlHka-8" value="dia" style="shape=parallelogram;html=1;strokeWidth=2;perimeter=parallelogramPerimeter;whiteSpace=wrap;rounded=1;arcSize=12;size=0.23;" vertex="1" parent="1">
          <mxGeometry x="554" y="260" width="81.1" height="30" as="geometry" />
        </mxCell>
        <mxCell id="cXI0Yz1Tb5PyKuHmlHka-9" value="Algoritmo resolver divison entera&amp;nbsp;" style="rounded=1;whiteSpace=wrap;html=1;" vertex="1" parent="1">
          <mxGeometry x="370" y="40" width="390" height="30" as="geometry" />
        </mxCell>
        <mxCell id="cXI0Yz1Tb5PyKuHmlHka-10" value="dia" style="strokeWidth=2;html=1;shape=mxgraph.flowchart.extract_or_measurement;whiteSpace=wrap;" vertex="1" parent="1">
          <mxGeometry x="269.55" y="340" width="650" height="90" as="geometry" />
        </mxCell>
        <mxCell id="cXI0Yz1Tb5PyKuHmlHka-11" style="edgeStyle=orthogonalEdgeStyle;rounded=0;orthogonalLoop=1;jettySize=auto;html=1;exitX=0.5;exitY=1;exitDx=0;exitDy=0;entryX=0.5;entryY=0;entryDx=0;entryDy=0;entryPerimeter=0;" edge="1" parent="1" source="cXI0Yz1Tb5PyKuHmlHka-8" target="cXI0Yz1Tb5PyKuHmlHka-10">
          <mxGeometry relative="1" as="geometry" />
        </mxCell>
        <mxCell id="cXI0Yz1Tb5PyKuHmlHka-12" value="+&amp;nbsp; &amp;nbsp; &amp;nbsp; &amp;nbsp;1&amp;nbsp; &amp;nbsp; &amp;nbsp; &amp;nbsp; +&amp;nbsp; &amp;nbsp; &amp;nbsp; &amp;nbsp; &amp;nbsp;2&amp;nbsp; &amp;nbsp; &amp;nbsp; &amp;nbsp; &amp;nbsp; &amp;nbsp; +&amp;nbsp; &amp;nbsp; &amp;nbsp; &amp;nbsp; &amp;nbsp; 3&amp;nbsp; &amp;nbsp; &amp;nbsp; &amp;nbsp; &amp;nbsp; &amp;nbsp; &amp;nbsp;+&amp;nbsp; &amp;nbsp; &amp;nbsp; &amp;nbsp; 4&amp;nbsp; &amp;nbsp; &amp;nbsp; &amp;nbsp; &amp;nbsp;+&amp;nbsp; &amp;nbsp; &amp;nbsp; &amp;nbsp; 5&amp;nbsp; &amp;nbsp; &amp;nbsp; &amp;nbsp; &amp;nbsp; &amp;nbsp; &amp;nbsp; &amp;nbsp;+&amp;nbsp; &amp;nbsp; &amp;nbsp; &amp;nbsp; &amp;nbsp;6&amp;nbsp; &amp;nbsp; &amp;nbsp;+&amp;nbsp; &amp;nbsp; &amp;nbsp; &amp;nbsp; &amp;nbsp;7&amp;nbsp; &amp;nbsp; &amp;nbsp; &amp;nbsp;+&amp;nbsp; &amp;nbsp; &amp;nbsp; &amp;nbsp; &amp;nbsp;de otro....&amp;nbsp; &amp;nbsp; &amp;nbsp;&amp;nbsp;" style="rounded=0;whiteSpace=wrap;html=1;" vertex="1" parent="1">
          <mxGeometry x="260" y="430" width="660" height="30" as="geometry" />
        </mxCell>
        <mxCell id="cXI0Yz1Tb5PyKuHmlHka-13" value="" style="endArrow=none;html=1;rounded=0;entryX=0.144;entryY=-0.067;entryDx=0;entryDy=0;entryPerimeter=0;exitX=0.144;exitY=1.067;exitDx=0;exitDy=0;exitPerimeter=0;" edge="1" parent="1" source="cXI0Yz1Tb5PyKuHmlHka-12" target="cXI0Yz1Tb5PyKuHmlHka-12">
          <mxGeometry width="50" height="50" relative="1" as="geometry">
            <mxPoint x="380" y="540" as="sourcePoint" />
            <mxPoint x="480" y="540" as="targetPoint" />
          </mxGeometry>
        </mxCell>
        <mxCell id="cXI0Yz1Tb5PyKuHmlHka-14" value="" style="endArrow=none;html=1;rounded=0;" edge="1" parent="1">
          <mxGeometry width="50" height="50" relative="1" as="geometry">
            <mxPoint x="290" y="460" as="sourcePoint" />
            <mxPoint x="290.45" y="430" as="targetPoint" />
            <Array as="points">
              <mxPoint x="290.45" y="440" />
            </Array>
          </mxGeometry>
        </mxCell>
        <mxCell id="cXI0Yz1Tb5PyKuHmlHka-15" value="" style="endArrow=none;html=1;rounded=0;" edge="1" parent="1">
          <mxGeometry width="50" height="50" relative="1" as="geometry">
            <mxPoint x="330" y="460" as="sourcePoint" />
            <mxPoint x="330.45" y="430" as="targetPoint" />
          </mxGeometry>
        </mxCell>
        <mxCell id="cXI0Yz1Tb5PyKuHmlHka-16" value="" style="endArrow=none;html=1;rounded=0;" edge="1" parent="1">
          <mxGeometry width="50" height="50" relative="1" as="geometry">
            <mxPoint x="494" y="460" as="sourcePoint" />
            <mxPoint x="493.55000000000007" y="430" as="targetPoint" />
          </mxGeometry>
        </mxCell>
        <mxCell id="cXI0Yz1Tb5PyKuHmlHka-17" value="" style="endArrow=none;html=1;rounded=0;" edge="1" parent="1">
          <mxGeometry width="50" height="50" relative="1" as="geometry">
            <mxPoint x="520" y="460" as="sourcePoint" />
            <mxPoint x="520.45" y="425" as="targetPoint" />
          </mxGeometry>
        </mxCell>
        <mxCell id="cXI0Yz1Tb5PyKuHmlHka-18" value="" style="endArrow=none;html=1;rounded=0;" edge="1" parent="1">
          <mxGeometry width="50" height="50" relative="1" as="geometry">
            <mxPoint x="690" y="460" as="sourcePoint" />
            <mxPoint x="690.45" y="430" as="targetPoint" />
          </mxGeometry>
        </mxCell>
        <mxCell id="cXI0Yz1Tb5PyKuHmlHka-19" value="" style="endArrow=none;html=1;rounded=0;" edge="1" parent="1">
          <mxGeometry width="50" height="50" relative="1" as="geometry">
            <mxPoint x="400" y="460" as="sourcePoint" />
            <mxPoint x="400.45" y="430" as="targetPoint" />
          </mxGeometry>
        </mxCell>
        <mxCell id="cXI0Yz1Tb5PyKuHmlHka-20" value="" style="endArrow=none;html=1;rounded=0;" edge="1" parent="1">
          <mxGeometry width="50" height="50" relative="1" as="geometry">
            <mxPoint x="440" y="460" as="sourcePoint" />
            <mxPoint x="440.45" y="430" as="targetPoint" />
          </mxGeometry>
        </mxCell>
        <mxCell id="cXI0Yz1Tb5PyKuHmlHka-21" value="" style="endArrow=none;html=1;rounded=0;exitX=0.609;exitY=1.067;exitDx=0;exitDy=0;exitPerimeter=0;" edge="1" parent="1" source="cXI0Yz1Tb5PyKuHmlHka-12">
          <mxGeometry width="50" height="50" relative="1" as="geometry">
            <mxPoint x="664" y="470" as="sourcePoint" />
            <mxPoint x="664.45" y="430" as="targetPoint" />
          </mxGeometry>
        </mxCell>
        <mxCell id="cXI0Yz1Tb5PyKuHmlHka-22" value="" style="endArrow=none;html=1;rounded=0;" edge="1" parent="1">
          <mxGeometry width="50" height="50" relative="1" as="geometry">
            <mxPoint x="570" y="460" as="sourcePoint" />
            <mxPoint x="570.45" y="430" as="targetPoint" />
          </mxGeometry>
        </mxCell>
        <mxCell id="cXI0Yz1Tb5PyKuHmlHka-23" value="" style="endArrow=none;html=1;rounded=0;" edge="1" parent="1">
          <mxGeometry width="50" height="50" relative="1" as="geometry">
            <mxPoint x="590" y="460" as="sourcePoint" />
            <mxPoint x="589.95" y="430" as="targetPoint" />
          </mxGeometry>
        </mxCell>
        <mxCell id="cXI0Yz1Tb5PyKuHmlHka-24" value="" style="endArrow=none;html=1;rounded=0;" edge="1" parent="1">
          <mxGeometry width="50" height="50" relative="1" as="geometry">
            <mxPoint x="730" y="460" as="sourcePoint" />
            <mxPoint x="730.45" y="440" as="targetPoint" />
          </mxGeometry>
        </mxCell>
        <mxCell id="cXI0Yz1Tb5PyKuHmlHka-25" value="" style="endArrow=none;html=1;rounded=0;" edge="1" parent="1">
          <mxGeometry width="50" height="50" relative="1" as="geometry">
            <mxPoint x="740" y="460" as="sourcePoint" />
            <mxPoint x="740.45" y="430" as="targetPoint" />
          </mxGeometry>
        </mxCell>
        <mxCell id="cXI0Yz1Tb5PyKuHmlHka-26" value="" style="endArrow=none;html=1;rounded=0;" edge="1" parent="1">
          <mxGeometry width="50" height="50" relative="1" as="geometry">
            <mxPoint x="810" y="460" as="sourcePoint" />
            <mxPoint x="810.45" y="430" as="targetPoint" />
          </mxGeometry>
        </mxCell>
        <mxCell id="cXI0Yz1Tb5PyKuHmlHka-27" value="" style="endArrow=none;html=1;rounded=0;" edge="1" parent="1">
          <mxGeometry width="50" height="50" relative="1" as="geometry">
            <mxPoint x="790" y="460" as="sourcePoint" />
            <mxPoint x="790.45" y="430" as="targetPoint" />
          </mxGeometry>
        </mxCell>
        <mxCell id="cXI0Yz1Tb5PyKuHmlHka-28" value="LUNES" style="shape=parallelogram;html=1;strokeWidth=2;perimeter=parallelogramPerimeter;whiteSpace=wrap;rounded=1;arcSize=12;size=0.23;" vertex="1" parent="1">
          <mxGeometry x="269.55" y="510" width="70" height="30" as="geometry" />
        </mxCell>
        <mxCell id="cXI0Yz1Tb5PyKuHmlHka-29" value="MARTES" style="shape=parallelogram;html=1;strokeWidth=2;perimeter=parallelogramPerimeter;whiteSpace=wrap;rounded=1;arcSize=12;size=0.23;" vertex="1" parent="1">
          <mxGeometry x="339.55" y="510" width="80" height="30" as="geometry" />
        </mxCell>
        <mxCell id="cXI0Yz1Tb5PyKuHmlHka-30" value="MIERCOLES" style="shape=parallelogram;html=1;strokeWidth=2;perimeter=parallelogramPerimeter;whiteSpace=wrap;rounded=1;arcSize=12;size=0.23;" vertex="1" parent="1">
          <mxGeometry x="419.55" y="510" width="100" height="30" as="geometry" />
        </mxCell>
        <mxCell id="cXI0Yz1Tb5PyKuHmlHka-31" value="JUEVES" style="shape=parallelogram;html=1;strokeWidth=2;perimeter=parallelogramPerimeter;whiteSpace=wrap;rounded=1;arcSize=12;size=0.23;" vertex="1" parent="1">
          <mxGeometry x="519.55" y="510" width="80" height="30" as="geometry" />
        </mxCell>
        <mxCell id="cXI0Yz1Tb5PyKuHmlHka-32" value="VIERNES" style="shape=parallelogram;html=1;strokeWidth=2;perimeter=parallelogramPerimeter;whiteSpace=wrap;rounded=1;arcSize=12;size=0.23;" vertex="1" parent="1">
          <mxGeometry x="590" y="510" width="80" height="30" as="geometry" />
        </mxCell>
        <mxCell id="cXI0Yz1Tb5PyKuHmlHka-33" value="DOMINGO" style="shape=parallelogram;html=1;strokeWidth=2;perimeter=parallelogramPerimeter;whiteSpace=wrap;rounded=1;arcSize=12;size=0.23;" vertex="1" parent="1">
          <mxGeometry x="740" y="510" width="90" height="30" as="geometry" />
        </mxCell>
        <mxCell id="cXI0Yz1Tb5PyKuHmlHka-34" value="SABADO" style="shape=parallelogram;html=1;strokeWidth=2;perimeter=parallelogramPerimeter;whiteSpace=wrap;rounded=1;arcSize=12;size=0.23;" vertex="1" parent="1">
          <mxGeometry x="664" y="510" width="86" height="30" as="geometry" />
        </mxCell>
        <mxCell id="cXI0Yz1Tb5PyKuHmlHka-35" value="Numero invalido" style="shape=parallelogram;html=1;strokeWidth=2;perimeter=parallelogramPerimeter;whiteSpace=wrap;rounded=1;arcSize=12;size=0.23;" vertex="1" parent="1">
          <mxGeometry x="820" y="510" width="160" height="30" as="geometry" />
        </mxCell>
        <mxCell id="cXI0Yz1Tb5PyKuHmlHka-36" value="" style="endArrow=classic;html=1;rounded=0;" edge="1" parent="1">
          <mxGeometry width="50" height="50" relative="1" as="geometry">
            <mxPoint x="304.05" y="460" as="sourcePoint" />
            <mxPoint x="304.05" y="510" as="targetPoint" />
            <Array as="points">
              <mxPoint x="304.05" y="460" />
            </Array>
          </mxGeometry>
        </mxCell>
        <mxCell id="cXI0Yz1Tb5PyKuHmlHka-37" value="" style="endArrow=classic;html=1;rounded=0;" edge="1" parent="1">
          <mxGeometry width="50" height="50" relative="1" as="geometry">
            <mxPoint x="379.05" y="460" as="sourcePoint" />
            <mxPoint x="379.05" y="510" as="targetPoint" />
            <Array as="points">
              <mxPoint x="379.05" y="460" />
            </Array>
          </mxGeometry>
        </mxCell>
        <mxCell id="cXI0Yz1Tb5PyKuHmlHka-38" value="" style="endArrow=classic;html=1;rounded=0;" edge="1" parent="1">
          <mxGeometry width="50" height="50" relative="1" as="geometry">
            <mxPoint x="890" y="460" as="sourcePoint" />
            <mxPoint x="890" y="510" as="targetPoint" />
            <Array as="points">
              <mxPoint x="890" y="460" />
            </Array>
          </mxGeometry>
        </mxCell>
        <mxCell id="cXI0Yz1Tb5PyKuHmlHka-39" value="" style="endArrow=classic;html=1;rounded=0;" edge="1" parent="1">
          <mxGeometry width="50" height="50" relative="1" as="geometry">
            <mxPoint x="784.5" y="460" as="sourcePoint" />
            <mxPoint x="784.5" y="510" as="targetPoint" />
            <Array as="points">
              <mxPoint x="784.5" y="460" />
            </Array>
          </mxGeometry>
        </mxCell>
        <mxCell id="cXI0Yz1Tb5PyKuHmlHka-40" value="" style="endArrow=classic;html=1;rounded=0;" edge="1" parent="1">
          <mxGeometry width="50" height="50" relative="1" as="geometry">
            <mxPoint x="550" y="460" as="sourcePoint" />
            <mxPoint x="550" y="510" as="targetPoint" />
            <Array as="points">
              <mxPoint x="550" y="460" />
            </Array>
          </mxGeometry>
        </mxCell>
        <mxCell id="cXI0Yz1Tb5PyKuHmlHka-41" value="" style="endArrow=classic;html=1;rounded=0;" edge="1" parent="1">
          <mxGeometry width="50" height="50" relative="1" as="geometry">
            <mxPoint x="469.05" y="460" as="sourcePoint" />
            <mxPoint x="469.05" y="510" as="targetPoint" />
            <Array as="points">
              <mxPoint x="469.05" y="460" />
            </Array>
          </mxGeometry>
        </mxCell>
        <mxCell id="cXI0Yz1Tb5PyKuHmlHka-42" value="" style="endArrow=classic;html=1;rounded=0;" edge="1" parent="1">
          <mxGeometry width="50" height="50" relative="1" as="geometry">
            <mxPoint x="629.5" y="460" as="sourcePoint" />
            <mxPoint x="629.5" y="510" as="targetPoint" />
            <Array as="points">
              <mxPoint x="629.5" y="460" />
            </Array>
          </mxGeometry>
        </mxCell>
        <mxCell id="cXI0Yz1Tb5PyKuHmlHka-43" value="" style="endArrow=classic;html=1;rounded=0;" edge="1" parent="1">
          <mxGeometry width="50" height="50" relative="1" as="geometry">
            <mxPoint x="700" y="460" as="sourcePoint" />
            <mxPoint x="700" y="510" as="targetPoint" />
            <Array as="points">
              <mxPoint x="700" y="460" />
            </Array>
          </mxGeometry>
        </mxCell>
        <mxCell id="cXI0Yz1Tb5PyKuHmlHka-44" value="" style="endArrow=classic;html=1;rounded=0;" edge="1" parent="1">
          <mxGeometry width="50" height="50" relative="1" as="geometry">
            <mxPoint x="880" y="540" as="sourcePoint" />
            <mxPoint x="880" y="590" as="targetPoint" />
            <Array as="points">
              <mxPoint x="880" y="540" />
            </Array>
          </mxGeometry>
        </mxCell>
        <mxCell id="cXI0Yz1Tb5PyKuHmlHka-45" value="" style="endArrow=classic;html=1;rounded=0;" edge="1" parent="1">
          <mxGeometry width="50" height="50" relative="1" as="geometry">
            <mxPoint x="370" y="540" as="sourcePoint" />
            <mxPoint x="370" y="590" as="targetPoint" />
            <Array as="points">
              <mxPoint x="370" y="540" />
            </Array>
          </mxGeometry>
        </mxCell>
        <mxCell id="cXI0Yz1Tb5PyKuHmlHka-46" value="" style="endArrow=classic;html=1;rounded=0;" edge="1" parent="1">
          <mxGeometry width="50" height="50" relative="1" as="geometry">
            <mxPoint x="300" y="540" as="sourcePoint" />
            <mxPoint x="300" y="590" as="targetPoint" />
            <Array as="points">
              <mxPoint x="300" y="540" />
            </Array>
          </mxGeometry>
        </mxCell>
        <mxCell id="cXI0Yz1Tb5PyKuHmlHka-47" value="" style="endArrow=classic;html=1;rounded=0;" edge="1" parent="1">
          <mxGeometry width="50" height="50" relative="1" as="geometry">
            <mxPoint x="629.5" y="540" as="sourcePoint" />
            <mxPoint x="629.5" y="590" as="targetPoint" />
            <Array as="points">
              <mxPoint x="629.5" y="540" />
            </Array>
          </mxGeometry>
        </mxCell>
        <mxCell id="cXI0Yz1Tb5PyKuHmlHka-48" value="" style="endArrow=classic;html=1;rounded=0;" edge="1" parent="1">
          <mxGeometry width="50" height="50" relative="1" as="geometry">
            <mxPoint x="706.5" y="540" as="sourcePoint" />
            <mxPoint x="706.5" y="590" as="targetPoint" />
            <Array as="points">
              <mxPoint x="706.5" y="540" />
            </Array>
          </mxGeometry>
        </mxCell>
        <mxCell id="cXI0Yz1Tb5PyKuHmlHka-49" value="" style="endArrow=classic;html=1;rounded=0;" edge="1" parent="1">
          <mxGeometry width="50" height="50" relative="1" as="geometry">
            <mxPoint x="554" y="540" as="sourcePoint" />
            <mxPoint x="554" y="590" as="targetPoint" />
            <Array as="points">
              <mxPoint x="554" y="540" />
            </Array>
          </mxGeometry>
        </mxCell>
        <mxCell id="cXI0Yz1Tb5PyKuHmlHka-50" value="" style="endArrow=classic;html=1;rounded=0;" edge="1" parent="1">
          <mxGeometry width="50" height="50" relative="1" as="geometry">
            <mxPoint x="784.5" y="540" as="sourcePoint" />
            <mxPoint x="784.5" y="590" as="targetPoint" />
            <Array as="points">
              <mxPoint x="784.5" y="540" />
            </Array>
          </mxGeometry>
        </mxCell>
        <mxCell id="cXI0Yz1Tb5PyKuHmlHka-51" value="" style="endArrow=classic;html=1;rounded=0;" edge="1" parent="1">
          <mxGeometry width="50" height="50" relative="1" as="geometry">
            <mxPoint x="460" y="540" as="sourcePoint" />
            <mxPoint x="460" y="590" as="targetPoint" />
            <Array as="points">
              <mxPoint x="460" y="540" />
            </Array>
          </mxGeometry>
        </mxCell>
        <mxCell id="QRLT9aErDVWo4XdcoqHP-1" value="finalgoritmo" style="rounded=1;whiteSpace=wrap;html=1;" vertex="1" parent="1">
          <mxGeometry x="534.55" y="650" width="120" height="26" as="geometry" />
        </mxCell>
        <mxCell id="QRLT9aErDVWo4XdcoqHP-2" value="" style="endArrow=none;html=1;rounded=0;" edge="1" parent="1">
          <mxGeometry width="50" height="50" relative="1" as="geometry">
            <mxPoint x="285.55" y="585" as="sourcePoint" />
            <mxPoint x="880" y="585" as="targetPoint" />
          </mxGeometry>
        </mxCell>
        <mxCell id="QRLT9aErDVWo4XdcoqHP-3" value="" style="endArrow=classic;html=1;rounded=0;" edge="1" parent="1">
          <mxGeometry width="50" height="50" relative="1" as="geometry">
            <mxPoint x="600" y="590" as="sourcePoint" />
            <mxPoint x="600" y="650" as="targetPoint" />
          </mxGeometry>
        </mxCell>
      </root>
    </mxGraphModel>
  </diagram>
  <diagram id="WRJfOARb2mLXKO33zd-X" name="ejercicio 1-7">
    <mxGraphModel dx="880" dy="468" grid="1" gridSize="10" guides="1" tooltips="1" connect="1" arrows="1" fold="1" page="1" pageScale="1" pageWidth="827" pageHeight="1169" math="0" shadow="0">
      <root>
        <mxCell id="0" />
        <mxCell id="1" parent="0" />
        <mxCell id="bQrcJEgllZrzb-3fbEbZ-1" style="edgeStyle=orthogonalEdgeStyle;rounded=0;orthogonalLoop=1;jettySize=auto;html=1;exitX=0.5;exitY=1;exitDx=0;exitDy=0;entryX=0.5;entryY=0;entryDx=0;entryDy=0;" edge="1" parent="1" target="bQrcJEgllZrzb-3fbEbZ-3">
          <mxGeometry relative="1" as="geometry">
            <mxPoint x="455" y="80" as="sourcePoint" />
          </mxGeometry>
        </mxCell>
        <mxCell id="bQrcJEgllZrzb-3fbEbZ-2" style="edgeStyle=orthogonalEdgeStyle;rounded=0;orthogonalLoop=1;jettySize=auto;html=1;exitX=0.5;exitY=1;exitDx=0;exitDy=0;entryX=0.5;entryY=0;entryDx=0;entryDy=0;" edge="1" parent="1" source="bQrcJEgllZrzb-3fbEbZ-3">
          <mxGeometry relative="1" as="geometry">
            <mxPoint x="455" y="200" as="targetPoint" />
          </mxGeometry>
        </mxCell>
        <mxCell id="bQrcJEgllZrzb-3fbEbZ-3" value="Definir area,radio ,pi" style="rounded=0;whiteSpace=wrap;html=1;" vertex="1" parent="1">
          <mxGeometry x="376" y="120" width="158" height="40" as="geometry" />
        </mxCell>
        <mxCell id="bQrcJEgllZrzb-3fbEbZ-4" style="edgeStyle=orthogonalEdgeStyle;rounded=0;orthogonalLoop=1;jettySize=auto;html=1;exitX=1;exitY=0;exitDx=0;exitDy=0;fillColor=#dae8fc;strokeColor=#6c8ebf;" edge="1" parent="1" source="bQrcJEgllZrzb-3fbEbZ-6">
          <mxGeometry relative="1" as="geometry">
            <mxPoint x="545.75" y="280" as="targetPoint" />
          </mxGeometry>
        </mxCell>
        <mxCell id="bQrcJEgllZrzb-3fbEbZ-5" style="edgeStyle=orthogonalEdgeStyle;rounded=0;orthogonalLoop=1;jettySize=auto;html=1;exitX=0.5;exitY=1;exitDx=0;exitDy=0;entryX=0.5;entryY=0;entryDx=0;entryDy=0;fillColor=#f8cecc;strokeColor=#b85450;" edge="1" parent="1" source="bQrcJEgllZrzb-3fbEbZ-6" target="bQrcJEgllZrzb-3fbEbZ-8">
          <mxGeometry relative="1" as="geometry" />
        </mxCell>
        <mxCell id="bQrcJEgllZrzb-3fbEbZ-6" value="Ingresar el radio de la&amp;nbsp;" style="shape=parallelogram;html=1;strokeWidth=2;perimeter=parallelogramPerimeter;whiteSpace=wrap;rounded=1;arcSize=12;size=0.23;" vertex="1" parent="1">
          <mxGeometry x="350" y="290" width="236.9" height="30" as="geometry" />
        </mxCell>
        <mxCell id="bQrcJEgllZrzb-3fbEbZ-7" style="edgeStyle=orthogonalEdgeStyle;rounded=0;orthogonalLoop=1;jettySize=auto;html=1;exitX=1;exitY=0;exitDx=0;exitDy=0;fillColor=#dae8fc;strokeColor=#6c8ebf;" edge="1" parent="1" source="bQrcJEgllZrzb-3fbEbZ-8">
          <mxGeometry relative="1" as="geometry">
            <mxPoint x="525.75" y="370" as="targetPoint" />
          </mxGeometry>
        </mxCell>
        <mxCell id="bQrcJEgllZrzb-3fbEbZ-8" value="radio&amp;nbsp;" style="shape=parallelogram;html=1;strokeWidth=2;perimeter=parallelogramPerimeter;whiteSpace=wrap;rounded=1;arcSize=12;size=0.23;" vertex="1" parent="1">
          <mxGeometry x="410.9" y="350" width="81.1" height="30" as="geometry" />
        </mxCell>
        <mxCell id="bQrcJEgllZrzb-3fbEbZ-9" value="Algoritmo calcularareadesfera" style="rounded=1;whiteSpace=wrap;html=1;" vertex="1" parent="1">
          <mxGeometry x="240" y="50" width="390" height="30" as="geometry" />
        </mxCell>
        <mxCell id="bQrcJEgllZrzb-3fbEbZ-10" value="pi= 3.14159265359" style="rounded=0;whiteSpace=wrap;html=1;" vertex="1" parent="1">
          <mxGeometry x="380" y="200" width="158" height="40" as="geometry" />
        </mxCell>
        <mxCell id="bQrcJEgllZrzb-3fbEbZ-11" style="edgeStyle=orthogonalEdgeStyle;rounded=0;orthogonalLoop=1;jettySize=auto;html=1;exitX=0.5;exitY=1;exitDx=0;exitDy=0;entryX=0.456;entryY=0.033;entryDx=0;entryDy=0;entryPerimeter=0;" edge="1" parent="1" source="bQrcJEgllZrzb-3fbEbZ-10" target="bQrcJEgllZrzb-3fbEbZ-6">
          <mxGeometry relative="1" as="geometry" />
        </mxCell>
        <mxCell id="OfYDtZ-d9MDcbovwhGxp-1" style="edgeStyle=orthogonalEdgeStyle;rounded=0;orthogonalLoop=1;jettySize=auto;html=1;entryX=0.5;entryY=0;entryDx=0;entryDy=0;" edge="1" parent="1" source="OfYDtZ-d9MDcbovwhGxp-3" target="OfYDtZ-d9MDcbovwhGxp-7">
          <mxGeometry relative="1" as="geometry" />
        </mxCell>
        <mxCell id="OfYDtZ-d9MDcbovwhGxp-2" style="edgeStyle=orthogonalEdgeStyle;rounded=0;orthogonalLoop=1;jettySize=auto;html=1;entryX=0.5;entryY=0;entryDx=0;entryDy=0;" edge="1" parent="1" source="OfYDtZ-d9MDcbovwhGxp-3" target="OfYDtZ-d9MDcbovwhGxp-8">
          <mxGeometry relative="1" as="geometry" />
        </mxCell>
        <mxCell id="OfYDtZ-d9MDcbovwhGxp-3" value="radio&amp;lt;0" style="html=1;whiteSpace=wrap;aspect=fixed;shape=isoRectangle;" vertex="1" parent="1">
          <mxGeometry x="382.9000000000001" y="445.43000000000006" width="122.25" height="73.35" as="geometry" />
        </mxCell>
        <mxCell id="OfYDtZ-d9MDcbovwhGxp-4" value="F" style="rounded=0;whiteSpace=wrap;html=1;" vertex="1" parent="1">
          <mxGeometry x="312.9000000000001" y="430" width="40" height="30" as="geometry" />
        </mxCell>
        <mxCell id="OfYDtZ-d9MDcbovwhGxp-5" value="v" style="rounded=0;whiteSpace=wrap;html=1;" vertex="1" parent="1">
          <mxGeometry x="542.9000000000001" y="437.1" width="30" height="30" as="geometry" />
        </mxCell>
        <mxCell id="OfYDtZ-d9MDcbovwhGxp-6" style="edgeStyle=orthogonalEdgeStyle;rounded=0;orthogonalLoop=1;jettySize=auto;html=1;exitX=0.5;exitY=1;exitDx=0;exitDy=0;" edge="1" parent="1" source="OfYDtZ-d9MDcbovwhGxp-7">
          <mxGeometry relative="1" as="geometry">
            <mxPoint x="652.9" y="700" as="targetPoint" />
          </mxGeometry>
        </mxCell>
        <mxCell id="OfYDtZ-d9MDcbovwhGxp-7" value="Error:&amp;nbsp; El radio no puede" style="shape=parallelogram;html=1;strokeWidth=2;perimeter=parallelogramPerimeter;whiteSpace=wrap;rounded=1;arcSize=12;size=0.23;" vertex="1" parent="1">
          <mxGeometry x="542.9000000000001" y="540" width="202.9" height="30" as="geometry" />
        </mxCell>
        <mxCell id="OfYDtZ-d9MDcbovwhGxp-8" value="area= 4.0*pi(radio * radio)" style="rounded=0;whiteSpace=wrap;html=1;" vertex="1" parent="1">
          <mxGeometry x="102.90000000000009" y="550" width="140" height="20" as="geometry" />
        </mxCell>
        <mxCell id="OfYDtZ-d9MDcbovwhGxp-9" style="edgeStyle=orthogonalEdgeStyle;rounded=0;orthogonalLoop=1;jettySize=auto;html=1;exitX=0.5;exitY=1;exitDx=0;exitDy=0;" edge="1" parent="1" source="OfYDtZ-d9MDcbovwhGxp-10">
          <mxGeometry relative="1" as="geometry">
            <mxPoint x="161.89999999999998" y="700" as="targetPoint" />
          </mxGeometry>
        </mxCell>
        <mxCell id="OfYDtZ-d9MDcbovwhGxp-10" value="la area de la esfera" style="shape=parallelogram;html=1;strokeWidth=2;perimeter=parallelogramPerimeter;whiteSpace=wrap;rounded=1;arcSize=12;size=0.23;" vertex="1" parent="1">
          <mxGeometry x="60" y="600" width="202.9" height="30" as="geometry" />
        </mxCell>
        <mxCell id="OfYDtZ-d9MDcbovwhGxp-11" style="edgeStyle=orthogonalEdgeStyle;rounded=0;orthogonalLoop=1;jettySize=auto;html=1;exitX=0.5;exitY=1;exitDx=0;exitDy=0;entryX=0.547;entryY=0.067;entryDx=0;entryDy=0;entryPerimeter=0;" edge="1" parent="1" source="OfYDtZ-d9MDcbovwhGxp-8" target="OfYDtZ-d9MDcbovwhGxp-10">
          <mxGeometry relative="1" as="geometry" />
        </mxCell>
        <mxCell id="OfYDtZ-d9MDcbovwhGxp-12" value="" style="endArrow=none;html=1;rounded=0;" edge="1" parent="1">
          <mxGeometry width="50" height="50" relative="1" as="geometry">
            <mxPoint x="162.89999999999998" y="700" as="sourcePoint" />
            <mxPoint x="652.9" y="700" as="targetPoint" />
          </mxGeometry>
        </mxCell>
        <mxCell id="OfYDtZ-d9MDcbovwhGxp-13" value="finalgoritmo" style="rounded=1;whiteSpace=wrap;html=1;" vertex="1" parent="1">
          <mxGeometry x="362.9" y="780" width="120" height="26" as="geometry" />
        </mxCell>
        <mxCell id="OfYDtZ-d9MDcbovwhGxp-14" value="" style="endArrow=classic;html=1;rounded=0;entryX=0.5;entryY=0;entryDx=0;entryDy=0;" edge="1" parent="1" target="OfYDtZ-d9MDcbovwhGxp-13">
          <mxGeometry width="50" height="50" relative="1" as="geometry">
            <mxPoint x="422.9" y="700" as="sourcePoint" />
            <mxPoint x="382.9" y="660" as="targetPoint" />
          </mxGeometry>
        </mxCell>
        <mxCell id="OfYDtZ-d9MDcbovwhGxp-15" style="edgeStyle=orthogonalEdgeStyle;rounded=0;orthogonalLoop=1;jettySize=auto;html=1;exitX=0.5;exitY=1;exitDx=0;exitDy=0;entryX=0.483;entryY=0.035;entryDx=0;entryDy=0;entryPerimeter=0;" edge="1" parent="1" source="bQrcJEgllZrzb-3fbEbZ-8" target="OfYDtZ-d9MDcbovwhGxp-3">
          <mxGeometry relative="1" as="geometry" />
        </mxCell>
      </root>
    </mxGraphModel>
  </diagram>
  <diagram id="qXBbX6TKC59GSiYqEed1" name="ejercicio 1-8">
    <mxGraphModel dx="1707" dy="468" grid="1" gridSize="10" guides="1" tooltips="1" connect="1" arrows="1" fold="1" page="1" pageScale="1" pageWidth="827" pageHeight="1169" math="0" shadow="0">
      <root>
        <mxCell id="0" />
        <mxCell id="1" parent="0" />
        <mxCell id="UbfeC5aOudeN-H_xOs3M-1" style="edgeStyle=orthogonalEdgeStyle;rounded=0;orthogonalLoop=1;jettySize=auto;html=1;exitX=0.5;exitY=1;exitDx=0;exitDy=0;entryX=0.5;entryY=0;entryDx=0;entryDy=0;" edge="1" parent="1" target="UbfeC5aOudeN-H_xOs3M-3">
          <mxGeometry relative="1" as="geometry">
            <mxPoint x="425" y="50" as="sourcePoint" />
          </mxGeometry>
        </mxCell>
        <mxCell id="UbfeC5aOudeN-H_xOs3M-2" style="edgeStyle=orthogonalEdgeStyle;rounded=0;orthogonalLoop=1;jettySize=auto;html=1;exitX=0.5;exitY=1;exitDx=0;exitDy=0;entryX=0.5;entryY=0;entryDx=0;entryDy=0;" edge="1" parent="1" source="UbfeC5aOudeN-H_xOs3M-3">
          <mxGeometry relative="1" as="geometry">
            <mxPoint x="425" y="170" as="targetPoint" />
          </mxGeometry>
        </mxCell>
        <mxCell id="UbfeC5aOudeN-H_xOs3M-3" value="Definir total de segundo" style="rounded=0;whiteSpace=wrap;html=1;" vertex="1" parent="1">
          <mxGeometry x="346" y="90" width="158" height="40" as="geometry" />
        </mxCell>
        <mxCell id="UbfeC5aOudeN-H_xOs3M-4" style="edgeStyle=orthogonalEdgeStyle;rounded=0;orthogonalLoop=1;jettySize=auto;html=1;exitX=1;exitY=0;exitDx=0;exitDy=0;fillColor=#dae8fc;strokeColor=#6c8ebf;" edge="1" parent="1" source="UbfeC5aOudeN-H_xOs3M-6">
          <mxGeometry relative="1" as="geometry">
            <mxPoint x="502.3" y="160" as="targetPoint" />
          </mxGeometry>
        </mxCell>
        <mxCell id="UbfeC5aOudeN-H_xOs3M-5" style="edgeStyle=orthogonalEdgeStyle;rounded=0;orthogonalLoop=1;jettySize=auto;html=1;exitX=0.5;exitY=1;exitDx=0;exitDy=0;entryX=0.5;entryY=0;entryDx=0;entryDy=0;fillColor=#f8cecc;strokeColor=#b85450;" edge="1" parent="1" source="UbfeC5aOudeN-H_xOs3M-6" target="UbfeC5aOudeN-H_xOs3M-8">
          <mxGeometry relative="1" as="geometry" />
        </mxCell>
        <mxCell id="UbfeC5aOudeN-H_xOs3M-6" value="ingrese el total de segundo" style="shape=parallelogram;html=1;strokeWidth=2;perimeter=parallelogramPerimeter;whiteSpace=wrap;rounded=1;arcSize=12;size=0.23;" vertex="1" parent="1">
          <mxGeometry x="306.55" y="170" width="236.9" height="30" as="geometry" />
        </mxCell>
        <mxCell id="UbfeC5aOudeN-H_xOs3M-7" style="edgeStyle=orthogonalEdgeStyle;rounded=0;orthogonalLoop=1;jettySize=auto;html=1;exitX=1;exitY=0;exitDx=0;exitDy=0;fillColor=#dae8fc;strokeColor=#6c8ebf;" edge="1" parent="1" source="UbfeC5aOudeN-H_xOs3M-8">
          <mxGeometry relative="1" as="geometry">
            <mxPoint x="482.3" y="250" as="targetPoint" />
          </mxGeometry>
        </mxCell>
        <mxCell id="UbfeC5aOudeN-H_xOs3M-8" value="total de segundo" style="shape=parallelogram;html=1;strokeWidth=2;perimeter=parallelogramPerimeter;whiteSpace=wrap;rounded=1;arcSize=12;size=0.23;" vertex="1" parent="1">
          <mxGeometry x="340" y="230" width="140" height="30" as="geometry" />
        </mxCell>
        <mxCell id="UbfeC5aOudeN-H_xOs3M-9" value="Algoritmo conversionsegundo" style="rounded=1;whiteSpace=wrap;html=1;" vertex="1" parent="1">
          <mxGeometry x="210" y="20" width="390" height="30" as="geometry" />
        </mxCell>
        <mxCell id="zxqdI3Z3ZTXagJH5w_rT-1" style="edgeStyle=orthogonalEdgeStyle;rounded=0;orthogonalLoop=1;jettySize=auto;html=1;entryX=0.5;entryY=0;entryDx=0;entryDy=0;" edge="1" parent="1" source="zxqdI3Z3ZTXagJH5w_rT-3" target="zxqdI3Z3ZTXagJH5w_rT-7">
          <mxGeometry relative="1" as="geometry" />
        </mxCell>
        <mxCell id="zxqdI3Z3ZTXagJH5w_rT-2" style="edgeStyle=orthogonalEdgeStyle;rounded=0;orthogonalLoop=1;jettySize=auto;html=1;entryX=0.5;entryY=0;entryDx=0;entryDy=0;" edge="1" parent="1" source="zxqdI3Z3ZTXagJH5w_rT-3" target="zxqdI3Z3ZTXagJH5w_rT-8">
          <mxGeometry relative="1" as="geometry" />
        </mxCell>
        <mxCell id="zxqdI3Z3ZTXagJH5w_rT-3" value="totaldesegundo &amp;lt;0" style="html=1;whiteSpace=wrap;aspect=fixed;shape=isoRectangle;" vertex="1" parent="1">
          <mxGeometry x="342.9000000000001" y="295.43000000000006" width="122.25" height="73.35" as="geometry" />
        </mxCell>
        <mxCell id="zxqdI3Z3ZTXagJH5w_rT-4" value="F" style="rounded=0;whiteSpace=wrap;html=1;" vertex="1" parent="1">
          <mxGeometry x="272.9000000000001" y="280" width="40" height="30" as="geometry" />
        </mxCell>
        <mxCell id="zxqdI3Z3ZTXagJH5w_rT-5" value="v" style="rounded=0;whiteSpace=wrap;html=1;" vertex="1" parent="1">
          <mxGeometry x="502.9000000000001" y="287.1" width="30" height="30" as="geometry" />
        </mxCell>
        <mxCell id="zxqdI3Z3ZTXagJH5w_rT-6" style="edgeStyle=orthogonalEdgeStyle;rounded=0;orthogonalLoop=1;jettySize=auto;html=1;exitX=0.5;exitY=1;exitDx=0;exitDy=0;" edge="1" parent="1" source="zxqdI3Z3ZTXagJH5w_rT-7">
          <mxGeometry relative="1" as="geometry">
            <mxPoint x="650" y="1773" as="targetPoint" />
          </mxGeometry>
        </mxCell>
        <mxCell id="zxqdI3Z3ZTXagJH5w_rT-7" value="Error:&amp;nbsp; Los segundo i.." style="shape=parallelogram;html=1;strokeWidth=2;perimeter=parallelogramPerimeter;whiteSpace=wrap;rounded=1;arcSize=12;size=0.23;" vertex="1" parent="1">
          <mxGeometry x="502.9000000000001" y="390" width="202.9" height="30" as="geometry" />
        </mxCell>
        <mxCell id="zxqdI3Z3ZTXagJH5w_rT-8" value="horas = totalsegundo/36000)" style="rounded=0;whiteSpace=wrap;html=1;" vertex="1" parent="1">
          <mxGeometry x="50" y="368.78" width="180" height="20" as="geometry" />
        </mxCell>
        <mxCell id="zxqdI3Z3ZTXagJH5w_rT-11" style="edgeStyle=orthogonalEdgeStyle;rounded=0;orthogonalLoop=1;jettySize=auto;html=1;exitX=0.5;exitY=1;exitDx=0;exitDy=0;" edge="1" parent="1" source="zxqdI3Z3ZTXagJH5w_rT-8">
          <mxGeometry relative="1" as="geometry">
            <mxPoint x="120" y="430" as="targetPoint" />
          </mxGeometry>
        </mxCell>
        <mxCell id="zxqdI3Z3ZTXagJH5w_rT-13" style="edgeStyle=orthogonalEdgeStyle;rounded=0;orthogonalLoop=1;jettySize=auto;html=1;exitX=0.5;exitY=1;exitDx=0;exitDy=0;entryX=0.492;entryY=0.035;entryDx=0;entryDy=0;entryPerimeter=0;" edge="1" parent="1" source="UbfeC5aOudeN-H_xOs3M-8" target="zxqdI3Z3ZTXagJH5w_rT-3">
          <mxGeometry relative="1" as="geometry" />
        </mxCell>
        <mxCell id="zxqdI3Z3ZTXagJH5w_rT-17" style="edgeStyle=orthogonalEdgeStyle;rounded=0;orthogonalLoop=1;jettySize=auto;html=1;exitX=0.5;exitY=1;exitDx=0;exitDy=0;entryX=0.5;entryY=0;entryDx=0;entryDy=0;" edge="1" parent="1" source="zxqdI3Z3ZTXagJH5w_rT-15" target="zxqdI3Z3ZTXagJH5w_rT-16">
          <mxGeometry relative="1" as="geometry" />
        </mxCell>
        <mxCell id="zxqdI3Z3ZTXagJH5w_rT-15" value="minutos=totalsegundo mod 3600)/60" style="rounded=0;whiteSpace=wrap;html=1;" vertex="1" parent="1">
          <mxGeometry x="50" y="430" width="210" height="20" as="geometry" />
        </mxCell>
        <mxCell id="zxqdI3Z3ZTXagJH5w_rT-18" style="edgeStyle=orthogonalEdgeStyle;rounded=0;orthogonalLoop=1;jettySize=auto;html=1;exitX=0.5;exitY=1;exitDx=0;exitDy=0;" edge="1" parent="1" source="zxqdI3Z3ZTXagJH5w_rT-16">
          <mxGeometry relative="1" as="geometry">
            <mxPoint x="120" y="550" as="targetPoint" />
          </mxGeometry>
        </mxCell>
        <mxCell id="zxqdI3Z3ZTXagJH5w_rT-16" value="segundo+ totalsegundo mod 3600" style="rounded=0;whiteSpace=wrap;html=1;" vertex="1" parent="1">
          <mxGeometry x="50" y="480" width="220" height="20" as="geometry" />
        </mxCell>
        <mxCell id="_14umrb_xkzEeddMcMbI-1" value="F" style="rounded=0;whiteSpace=wrap;html=1;" vertex="1" parent="1">
          <mxGeometry x="-34.55000000000001" y="520" width="40" height="30" as="geometry" />
        </mxCell>
        <mxCell id="_14umrb_xkzEeddMcMbI-2" value="v" style="rounded=0;whiteSpace=wrap;html=1;" vertex="1" parent="1">
          <mxGeometry x="235.45000000000005" y="530" width="30" height="30" as="geometry" />
        </mxCell>
        <mxCell id="_14umrb_xkzEeddMcMbI-3" style="edgeStyle=orthogonalEdgeStyle;rounded=0;orthogonalLoop=1;jettySize=auto;html=1;" edge="1" parent="1" source="_14umrb_xkzEeddMcMbI-5">
          <mxGeometry relative="1" as="geometry">
            <mxPoint x="360" y="650" as="targetPoint" />
          </mxGeometry>
        </mxCell>
        <mxCell id="_14umrb_xkzEeddMcMbI-4" style="edgeStyle=orthogonalEdgeStyle;rounded=0;orthogonalLoop=1;jettySize=auto;html=1;" edge="1" parent="1" source="_14umrb_xkzEeddMcMbI-5">
          <mxGeometry relative="1" as="geometry">
            <mxPoint x="-110" y="810" as="targetPoint" />
          </mxGeometry>
        </mxCell>
        <mxCell id="_14umrb_xkzEeddMcMbI-5" value="horas&amp;lt;10" style="html=1;whiteSpace=wrap;aspect=fixed;shape=isoRectangle;" vertex="1" parent="1">
          <mxGeometry x="59.77999999999997" y="540" width="122.25" height="73.35" as="geometry" />
        </mxCell>
        <mxCell id="_14umrb_xkzEeddMcMbI-6" style="edgeStyle=orthogonalEdgeStyle;rounded=0;orthogonalLoop=1;jettySize=auto;html=1;exitX=0.5;exitY=1;exitDx=0;exitDy=0;" edge="1" parent="1">
          <mxGeometry relative="1" as="geometry">
            <mxPoint x="348" y="810" as="targetPoint" />
            <mxPoint x="348.2249999999999" y="679" as="sourcePoint" />
          </mxGeometry>
        </mxCell>
        <mxCell id="_14umrb_xkzEeddMcMbI-8" value="" style="endArrow=none;html=1;rounded=0;" edge="1" parent="1">
          <mxGeometry width="50" height="50" relative="1" as="geometry">
            <mxPoint x="-110" y="800" as="sourcePoint" />
            <mxPoint x="350" y="810" as="targetPoint" />
          </mxGeometry>
        </mxCell>
        <mxCell id="_14umrb_xkzEeddMcMbI-9" value="F" style="rounded=0;whiteSpace=wrap;html=1;" vertex="1" parent="1">
          <mxGeometry x="-41" y="920" width="40" height="30" as="geometry" />
        </mxCell>
        <mxCell id="_14umrb_xkzEeddMcMbI-10" value="v" style="rounded=0;whiteSpace=wrap;html=1;" vertex="1" parent="1">
          <mxGeometry x="229.00000000000006" y="930" width="30" height="30" as="geometry" />
        </mxCell>
        <mxCell id="_14umrb_xkzEeddMcMbI-11" style="edgeStyle=orthogonalEdgeStyle;rounded=0;orthogonalLoop=1;jettySize=auto;html=1;" edge="1" parent="1" source="_14umrb_xkzEeddMcMbI-13">
          <mxGeometry relative="1" as="geometry">
            <mxPoint x="353.55" y="1050" as="targetPoint" />
          </mxGeometry>
        </mxCell>
        <mxCell id="_14umrb_xkzEeddMcMbI-12" style="edgeStyle=orthogonalEdgeStyle;rounded=0;orthogonalLoop=1;jettySize=auto;html=1;" edge="1" parent="1" source="_14umrb_xkzEeddMcMbI-13">
          <mxGeometry relative="1" as="geometry">
            <mxPoint x="-116.44999999999999" y="1210" as="targetPoint" />
          </mxGeometry>
        </mxCell>
        <mxCell id="_14umrb_xkzEeddMcMbI-13" value="minutos &amp;lt;10" style="html=1;whiteSpace=wrap;aspect=fixed;shape=isoRectangle;" vertex="1" parent="1">
          <mxGeometry x="53.329999999999984" y="940" width="122.25" height="73.35" as="geometry" />
        </mxCell>
        <mxCell id="_14umrb_xkzEeddMcMbI-14" style="edgeStyle=orthogonalEdgeStyle;rounded=0;orthogonalLoop=1;jettySize=auto;html=1;exitX=0.5;exitY=1;exitDx=0;exitDy=0;" edge="1" parent="1">
          <mxGeometry relative="1" as="geometry">
            <mxPoint x="341.55" y="1210" as="targetPoint" />
            <mxPoint x="341.7750000000001" y="1079" as="sourcePoint" />
          </mxGeometry>
        </mxCell>
        <mxCell id="_14umrb_xkzEeddMcMbI-16" value="" style="endArrow=none;html=1;rounded=0;" edge="1" parent="1">
          <mxGeometry width="50" height="50" relative="1" as="geometry">
            <mxPoint x="-116.44999999999999" y="1200" as="sourcePoint" />
            <mxPoint x="343.55" y="1210" as="targetPoint" />
          </mxGeometry>
        </mxCell>
        <mxCell id="_14umrb_xkzEeddMcMbI-17" value="F" style="rounded=0;whiteSpace=wrap;html=1;" vertex="1" parent="1">
          <mxGeometry x="-34.55" y="1330" width="40" height="30" as="geometry" />
        </mxCell>
        <mxCell id="_14umrb_xkzEeddMcMbI-18" value="v" style="rounded=0;whiteSpace=wrap;html=1;" vertex="1" parent="1">
          <mxGeometry x="235.45000000000005" y="1340" width="30" height="30" as="geometry" />
        </mxCell>
        <mxCell id="_14umrb_xkzEeddMcMbI-19" style="edgeStyle=orthogonalEdgeStyle;rounded=0;orthogonalLoop=1;jettySize=auto;html=1;" edge="1" parent="1" source="_14umrb_xkzEeddMcMbI-21">
          <mxGeometry relative="1" as="geometry">
            <mxPoint x="360" y="1460" as="targetPoint" />
          </mxGeometry>
        </mxCell>
        <mxCell id="_14umrb_xkzEeddMcMbI-20" style="edgeStyle=orthogonalEdgeStyle;rounded=0;orthogonalLoop=1;jettySize=auto;html=1;" edge="1" parent="1" source="_14umrb_xkzEeddMcMbI-21">
          <mxGeometry relative="1" as="geometry">
            <mxPoint x="-109.99999999999999" y="1620" as="targetPoint" />
          </mxGeometry>
        </mxCell>
        <mxCell id="_14umrb_xkzEeddMcMbI-21" value="segundos&amp;lt;10" style="html=1;whiteSpace=wrap;aspect=fixed;shape=isoRectangle;" vertex="1" parent="1">
          <mxGeometry x="59.77999999999999" y="1350" width="122.25" height="73.35" as="geometry" />
        </mxCell>
        <mxCell id="_14umrb_xkzEeddMcMbI-22" style="edgeStyle=orthogonalEdgeStyle;rounded=0;orthogonalLoop=1;jettySize=auto;html=1;exitX=0.5;exitY=1;exitDx=0;exitDy=0;" edge="1" parent="1">
          <mxGeometry relative="1" as="geometry">
            <mxPoint x="348" y="1620" as="targetPoint" />
            <mxPoint x="348.2249999999999" y="1489" as="sourcePoint" />
          </mxGeometry>
        </mxCell>
        <mxCell id="_14umrb_xkzEeddMcMbI-24" value="" style="endArrow=none;html=1;rounded=0;" edge="1" parent="1">
          <mxGeometry width="50" height="50" relative="1" as="geometry">
            <mxPoint x="-109.99999999999999" y="1610" as="sourcePoint" />
            <mxPoint x="350" y="1620" as="targetPoint" />
          </mxGeometry>
        </mxCell>
        <mxCell id="_14umrb_xkzEeddMcMbI-25" value="&#39;0&#39;" style="shape=parallelogram;html=1;strokeWidth=2;perimeter=parallelogramPerimeter;whiteSpace=wrap;rounded=1;arcSize=12;size=0.23;" vertex="1" parent="1">
          <mxGeometry x="272.9" y="650" width="154.55" height="30" as="geometry" />
        </mxCell>
        <mxCell id="_14umrb_xkzEeddMcMbI-27" style="edgeStyle=orthogonalEdgeStyle;rounded=0;orthogonalLoop=1;jettySize=auto;html=1;exitX=0.5;exitY=1;exitDx=0;exitDy=0;" edge="1" parent="1" source="_14umrb_xkzEeddMcMbI-26" target="_14umrb_xkzEeddMcMbI-13">
          <mxGeometry relative="1" as="geometry" />
        </mxCell>
        <mxCell id="_14umrb_xkzEeddMcMbI-26" value="horas,&#39;;&#39;" style="shape=parallelogram;html=1;strokeWidth=2;perimeter=parallelogramPerimeter;whiteSpace=wrap;rounded=1;arcSize=12;size=0.23;" vertex="1" parent="1">
          <mxGeometry x="70.9" y="850" width="100" height="30" as="geometry" />
        </mxCell>
        <mxCell id="_14umrb_xkzEeddMcMbI-28" value="" style="endArrow=classic;html=1;rounded=0;entryX=0.5;entryY=0;entryDx=0;entryDy=0;" edge="1" parent="1" target="_14umrb_xkzEeddMcMbI-26">
          <mxGeometry width="50" height="50" relative="1" as="geometry">
            <mxPoint x="120" y="800" as="sourcePoint" />
            <mxPoint x="340" y="720" as="targetPoint" />
          </mxGeometry>
        </mxCell>
        <mxCell id="_14umrb_xkzEeddMcMbI-29" value="&#39;0&#39;" style="shape=parallelogram;html=1;strokeWidth=2;perimeter=parallelogramPerimeter;whiteSpace=wrap;rounded=1;arcSize=12;size=0.23;" vertex="1" parent="1">
          <mxGeometry x="272.9" y="1050" width="154.55" height="30" as="geometry" />
        </mxCell>
        <mxCell id="_14umrb_xkzEeddMcMbI-30" value="minutos&#39;:&#39;" style="shape=parallelogram;html=1;strokeWidth=2;perimeter=parallelogramPerimeter;whiteSpace=wrap;rounded=1;arcSize=12;size=0.23;" vertex="1" parent="1">
          <mxGeometry x="62.03" y="1260" width="120" height="30" as="geometry" />
        </mxCell>
        <mxCell id="_14umrb_xkzEeddMcMbI-31" style="edgeStyle=orthogonalEdgeStyle;rounded=0;orthogonalLoop=1;jettySize=auto;html=1;exitX=0.5;exitY=1;exitDx=0;exitDy=0;entryX=0.476;entryY=-0.014;entryDx=0;entryDy=0;entryPerimeter=0;" edge="1" parent="1" source="_14umrb_xkzEeddMcMbI-30" target="_14umrb_xkzEeddMcMbI-21">
          <mxGeometry relative="1" as="geometry" />
        </mxCell>
        <mxCell id="_14umrb_xkzEeddMcMbI-32" value="" style="endArrow=classic;html=1;rounded=0;entryX=0.5;entryY=0;entryDx=0;entryDy=0;" edge="1" parent="1" target="_14umrb_xkzEeddMcMbI-30">
          <mxGeometry width="50" height="50" relative="1" as="geometry">
            <mxPoint x="122" y="1210" as="sourcePoint" />
            <mxPoint x="340" y="1120" as="targetPoint" />
          </mxGeometry>
        </mxCell>
        <mxCell id="_14umrb_xkzEeddMcMbI-33" value="&#39;0&#39;" style="shape=parallelogram;html=1;strokeWidth=2;perimeter=parallelogramPerimeter;whiteSpace=wrap;rounded=1;arcSize=12;size=0.23;" vertex="1" parent="1">
          <mxGeometry x="280" y="1460" width="154.55" height="30" as="geometry" />
        </mxCell>
        <mxCell id="_14umrb_xkzEeddMcMbI-36" style="edgeStyle=orthogonalEdgeStyle;rounded=0;orthogonalLoop=1;jettySize=auto;html=1;exitX=0.5;exitY=1;exitDx=0;exitDy=0;" edge="1" parent="1" source="_14umrb_xkzEeddMcMbI-34">
          <mxGeometry relative="1" as="geometry">
            <mxPoint x="122" y="1770" as="targetPoint" />
          </mxGeometry>
        </mxCell>
        <mxCell id="_14umrb_xkzEeddMcMbI-34" value="segundos&#39;:&#39;" style="shape=parallelogram;html=1;strokeWidth=2;perimeter=parallelogramPerimeter;whiteSpace=wrap;rounded=1;arcSize=12;size=0.23;" vertex="1" parent="1">
          <mxGeometry x="62.03" y="1660" width="120" height="30" as="geometry" />
        </mxCell>
        <mxCell id="_14umrb_xkzEeddMcMbI-35" value="" style="endArrow=classic;html=1;rounded=0;entryX=0.5;entryY=0;entryDx=0;entryDy=0;" edge="1" parent="1" target="_14umrb_xkzEeddMcMbI-34">
          <mxGeometry width="50" height="50" relative="1" as="geometry">
            <mxPoint x="120" y="1610" as="sourcePoint" />
            <mxPoint y="1640" as="targetPoint" />
          </mxGeometry>
        </mxCell>
        <mxCell id="_14umrb_xkzEeddMcMbI-37" value="" style="endArrow=none;html=1;rounded=0;" edge="1" parent="1">
          <mxGeometry width="50" height="50" relative="1" as="geometry">
            <mxPoint x="120" y="1770" as="sourcePoint" />
            <mxPoint x="650" y="1770" as="targetPoint" />
          </mxGeometry>
        </mxCell>
        <mxCell id="29UKIoIRg72h47dVqGTO-1" value="finalgoritmo" style="rounded=1;whiteSpace=wrap;html=1;" vertex="1" parent="1">
          <mxGeometry x="314.55" y="1880" width="120" height="26" as="geometry" />
        </mxCell>
        <mxCell id="29UKIoIRg72h47dVqGTO-2" value="" style="endArrow=classic;html=1;rounded=0;entryX=0.587;entryY=-0.115;entryDx=0;entryDy=0;entryPerimeter=0;" edge="1" parent="1" target="29UKIoIRg72h47dVqGTO-1">
          <mxGeometry width="50" height="50" relative="1" as="geometry">
            <mxPoint x="385" y="1770" as="sourcePoint" />
            <mxPoint x="480" y="1780" as="targetPoint" />
          </mxGeometry>
        </mxCell>
      </root>
    </mxGraphModel>
  </diagram>
  <diagram id="gQ8Y5E0g3nigzjqfmPEt" name="ejercicio 1-9">
    <mxGraphModel dx="880" dy="468" grid="1" gridSize="10" guides="1" tooltips="1" connect="1" arrows="1" fold="1" page="1" pageScale="1" pageWidth="827" pageHeight="1169" math="0" shadow="0">
      <root>
        <mxCell id="0" />
        <mxCell id="1" parent="0" />
        <mxCell id="QX5KzovQz_H00cvXov_u-1" style="edgeStyle=orthogonalEdgeStyle;rounded=0;orthogonalLoop=1;jettySize=auto;html=1;exitX=0.5;exitY=1;exitDx=0;exitDy=0;entryX=0.5;entryY=0;entryDx=0;entryDy=0;" edge="1" parent="1" target="QX5KzovQz_H00cvXov_u-3">
          <mxGeometry relative="1" as="geometry">
            <mxPoint x="595" y="80" as="sourcePoint" />
          </mxGeometry>
        </mxCell>
        <mxCell id="QX5KzovQz_H00cvXov_u-2" style="edgeStyle=orthogonalEdgeStyle;rounded=0;orthogonalLoop=1;jettySize=auto;html=1;exitX=0.5;exitY=1;exitDx=0;exitDy=0;entryX=0.5;entryY=0;entryDx=0;entryDy=0;" edge="1" parent="1" source="QX5KzovQz_H00cvXov_u-3">
          <mxGeometry relative="1" as="geometry">
            <mxPoint x="595" y="200" as="targetPoint" />
          </mxGeometry>
        </mxCell>
        <mxCell id="QX5KzovQz_H00cvXov_u-3" value="Definir palabra1,palabra 2......" style="rounded=0;whiteSpace=wrap;html=1;" vertex="1" parent="1">
          <mxGeometry x="516" y="120" width="204" height="40" as="geometry" />
        </mxCell>
        <mxCell id="QX5KzovQz_H00cvXov_u-4" style="edgeStyle=orthogonalEdgeStyle;rounded=0;orthogonalLoop=1;jettySize=auto;html=1;exitX=1;exitY=0;exitDx=0;exitDy=0;fillColor=#dae8fc;strokeColor=#6c8ebf;" edge="1" parent="1" source="QX5KzovQz_H00cvXov_u-6">
          <mxGeometry relative="1" as="geometry">
            <mxPoint x="685.75" y="280" as="targetPoint" />
          </mxGeometry>
        </mxCell>
        <mxCell id="QX5KzovQz_H00cvXov_u-5" style="edgeStyle=orthogonalEdgeStyle;rounded=0;orthogonalLoop=1;jettySize=auto;html=1;exitX=0.5;exitY=1;exitDx=0;exitDy=0;entryX=0.5;entryY=0;entryDx=0;entryDy=0;fillColor=#f8cecc;strokeColor=#b85450;" edge="1" parent="1" source="QX5KzovQz_H00cvXov_u-6" target="QX5KzovQz_H00cvXov_u-8">
          <mxGeometry relative="1" as="geometry" />
        </mxCell>
        <mxCell id="QX5KzovQz_H00cvXov_u-6" value="ingrese 5 palabra" style="shape=parallelogram;html=1;strokeWidth=2;perimeter=parallelogramPerimeter;whiteSpace=wrap;rounded=1;arcSize=12;size=0.23;" vertex="1" parent="1">
          <mxGeometry x="490" y="290" width="236.9" height="30" as="geometry" />
        </mxCell>
        <mxCell id="QX5KzovQz_H00cvXov_u-7" style="edgeStyle=orthogonalEdgeStyle;rounded=0;orthogonalLoop=1;jettySize=auto;html=1;exitX=1;exitY=0;exitDx=0;exitDy=0;fillColor=#dae8fc;strokeColor=#6c8ebf;" edge="1" parent="1" source="QX5KzovQz_H00cvXov_u-8">
          <mxGeometry relative="1" as="geometry">
            <mxPoint x="665.75" y="370" as="targetPoint" />
          </mxGeometry>
        </mxCell>
        <mxCell id="QX5KzovQz_H00cvXov_u-8" value="palabra 1, palabra 2, palabra 3 ....." style="shape=parallelogram;html=1;strokeWidth=2;perimeter=parallelogramPerimeter;whiteSpace=wrap;rounded=1;arcSize=12;size=0.23;" vertex="1" parent="1">
          <mxGeometry x="400" y="350" width="260" height="30" as="geometry" />
        </mxCell>
        <mxCell id="QX5KzovQz_H00cvXov_u-9" value="Algoritmo primeros caracter" style="rounded=1;whiteSpace=wrap;html=1;" vertex="1" parent="1">
          <mxGeometry x="380" y="50" width="390" height="30" as="geometry" />
        </mxCell>
        <mxCell id="QX5KzovQz_H00cvXov_u-10" value="Definir primer caracter....." style="rounded=0;whiteSpace=wrap;html=1;" vertex="1" parent="1">
          <mxGeometry x="520" y="200" width="158" height="40" as="geometry" />
        </mxCell>
        <mxCell id="QX5KzovQz_H00cvXov_u-11" style="edgeStyle=orthogonalEdgeStyle;rounded=0;orthogonalLoop=1;jettySize=auto;html=1;exitX=0.5;exitY=1;exitDx=0;exitDy=0;entryX=0.456;entryY=0.033;entryDx=0;entryDy=0;entryPerimeter=0;" edge="1" parent="1" source="QX5KzovQz_H00cvXov_u-10" target="QX5KzovQz_H00cvXov_u-6">
          <mxGeometry relative="1" as="geometry" />
        </mxCell>
        <mxCell id="QX5KzovQz_H00cvXov_u-13" style="edgeStyle=orthogonalEdgeStyle;rounded=0;orthogonalLoop=1;jettySize=auto;html=1;exitX=0.5;exitY=1;exitDx=0;exitDy=0;" edge="1" parent="1" source="QX5KzovQz_H00cvXov_u-12">
          <mxGeometry relative="1" as="geometry">
            <mxPoint x="515" y="460" as="targetPoint" />
          </mxGeometry>
        </mxCell>
        <mxCell id="QX5KzovQz_H00cvXov_u-12" value="primer caracter 1 =sub...." style="rounded=0;whiteSpace=wrap;html=1;" vertex="1" parent="1">
          <mxGeometry x="390" y="400" width="250" height="30" as="geometry" />
        </mxCell>
        <mxCell id="QX5KzovQz_H00cvXov_u-14" style="edgeStyle=orthogonalEdgeStyle;rounded=0;orthogonalLoop=1;jettySize=auto;html=1;exitX=0.5;exitY=1;exitDx=0;exitDy=0;entryX=0.56;entryY=0.067;entryDx=0;entryDy=0;entryPerimeter=0;" edge="1" parent="1" source="QX5KzovQz_H00cvXov_u-8" target="QX5KzovQz_H00cvXov_u-12">
          <mxGeometry relative="1" as="geometry" />
        </mxCell>
        <mxCell id="QX5KzovQz_H00cvXov_u-23" style="edgeStyle=orthogonalEdgeStyle;rounded=0;orthogonalLoop=1;jettySize=auto;html=1;exitX=0.5;exitY=1;exitDx=0;exitDy=0;" edge="1" parent="1" source="QX5KzovQz_H00cvXov_u-24">
          <mxGeometry relative="1" as="geometry">
            <mxPoint x="515" y="520" as="targetPoint" />
          </mxGeometry>
        </mxCell>
        <mxCell id="QX5KzovQz_H00cvXov_u-24" value="primer caracter 2 =sub...." style="rounded=0;whiteSpace=wrap;html=1;" vertex="1" parent="1">
          <mxGeometry x="390" y="460" width="250" height="30" as="geometry" />
        </mxCell>
        <mxCell id="QX5KzovQz_H00cvXov_u-25" style="edgeStyle=orthogonalEdgeStyle;rounded=0;orthogonalLoop=1;jettySize=auto;html=1;exitX=0.5;exitY=1;exitDx=0;exitDy=0;" edge="1" parent="1" source="QX5KzovQz_H00cvXov_u-26">
          <mxGeometry relative="1" as="geometry">
            <mxPoint x="515" y="580" as="targetPoint" />
          </mxGeometry>
        </mxCell>
        <mxCell id="QX5KzovQz_H00cvXov_u-26" value="primer caracter 3 =sub...." style="rounded=0;whiteSpace=wrap;html=1;" vertex="1" parent="1">
          <mxGeometry x="390" y="520" width="250" height="30" as="geometry" />
        </mxCell>
        <mxCell id="QX5KzovQz_H00cvXov_u-27" style="edgeStyle=orthogonalEdgeStyle;rounded=0;orthogonalLoop=1;jettySize=auto;html=1;exitX=0.5;exitY=1;exitDx=0;exitDy=0;" edge="1" parent="1" source="QX5KzovQz_H00cvXov_u-28">
          <mxGeometry relative="1" as="geometry">
            <mxPoint x="515" y="640" as="targetPoint" />
          </mxGeometry>
        </mxCell>
        <mxCell id="QX5KzovQz_H00cvXov_u-28" value="primer caracter 4 =sub...." style="rounded=0;whiteSpace=wrap;html=1;" vertex="1" parent="1">
          <mxGeometry x="390" y="580" width="250" height="30" as="geometry" />
        </mxCell>
        <mxCell id="QX5KzovQz_H00cvXov_u-29" style="edgeStyle=orthogonalEdgeStyle;rounded=0;orthogonalLoop=1;jettySize=auto;html=1;exitX=0.5;exitY=1;exitDx=0;exitDy=0;" edge="1" parent="1" source="QX5KzovQz_H00cvXov_u-30">
          <mxGeometry relative="1" as="geometry">
            <mxPoint x="515" y="700" as="targetPoint" />
          </mxGeometry>
        </mxCell>
        <mxCell id="QX5KzovQz_H00cvXov_u-30" value="primer caracter 5 =sub...." style="rounded=0;whiteSpace=wrap;html=1;" vertex="1" parent="1">
          <mxGeometry x="390" y="640" width="250" height="30" as="geometry" />
        </mxCell>
        <mxCell id="zCDYjHdCA4FegCx50M5l-14" style="edgeStyle=orthogonalEdgeStyle;rounded=0;orthogonalLoop=1;jettySize=auto;html=1;exitX=0.5;exitY=1;exitDx=0;exitDy=0;" edge="1" parent="1" source="QX5KzovQz_H00cvXov_u-31" target="zCDYjHdCA4FegCx50M5l-3">
          <mxGeometry relative="1" as="geometry" />
        </mxCell>
        <mxCell id="QX5KzovQz_H00cvXov_u-31" value="primer caracter, segundo caracter.." style="shape=parallelogram;html=1;strokeWidth=2;perimeter=parallelogramPerimeter;whiteSpace=wrap;rounded=1;arcSize=12;size=0.23;" vertex="1" parent="1">
          <mxGeometry x="395" y="700" width="265" height="30" as="geometry" />
        </mxCell>
        <mxCell id="zCDYjHdCA4FegCx50M5l-1" style="edgeStyle=orthogonalEdgeStyle;rounded=0;orthogonalLoop=1;jettySize=auto;html=1;entryX=0.5;entryY=0;entryDx=0;entryDy=0;" edge="1" parent="1" source="zCDYjHdCA4FegCx50M5l-3" target="zCDYjHdCA4FegCx50M5l-7">
          <mxGeometry relative="1" as="geometry" />
        </mxCell>
        <mxCell id="zCDYjHdCA4FegCx50M5l-2" style="edgeStyle=orthogonalEdgeStyle;rounded=0;orthogonalLoop=1;jettySize=auto;html=1;entryX=0.5;entryY=0;entryDx=0;entryDy=0;" edge="1" parent="1" source="zCDYjHdCA4FegCx50M5l-3">
          <mxGeometry relative="1" as="geometry">
            <mxPoint x="240" y="900" as="targetPoint" />
          </mxGeometry>
        </mxCell>
        <mxCell id="zCDYjHdCA4FegCx50M5l-3" value="primer caracter...." style="html=1;whiteSpace=wrap;aspect=fixed;shape=isoRectangle;" vertex="1" parent="1">
          <mxGeometry x="450" y="795.4300000000001" width="122.25" height="73.35" as="geometry" />
        </mxCell>
        <mxCell id="zCDYjHdCA4FegCx50M5l-4" value="F" style="rounded=0;whiteSpace=wrap;html=1;" vertex="1" parent="1">
          <mxGeometry x="380" y="780" width="40" height="30" as="geometry" />
        </mxCell>
        <mxCell id="zCDYjHdCA4FegCx50M5l-5" value="v" style="rounded=0;whiteSpace=wrap;html=1;" vertex="1" parent="1">
          <mxGeometry x="610" y="787.1" width="30" height="30" as="geometry" />
        </mxCell>
        <mxCell id="zCDYjHdCA4FegCx50M5l-6" style="edgeStyle=orthogonalEdgeStyle;rounded=0;orthogonalLoop=1;jettySize=auto;html=1;exitX=0.5;exitY=1;exitDx=0;exitDy=0;" edge="1" parent="1" source="zCDYjHdCA4FegCx50M5l-7">
          <mxGeometry relative="1" as="geometry">
            <mxPoint x="719.9999999999999" y="1050" as="targetPoint" />
          </mxGeometry>
        </mxCell>
        <mxCell id="zCDYjHdCA4FegCx50M5l-7" value="Mhemos encontrado algo!" style="shape=parallelogram;html=1;strokeWidth=2;perimeter=parallelogramPerimeter;whiteSpace=wrap;rounded=1;arcSize=12;size=0.23;" vertex="1" parent="1">
          <mxGeometry x="610" y="890" width="202.9" height="30" as="geometry" />
        </mxCell>
        <mxCell id="zCDYjHdCA4FegCx50M5l-9" style="edgeStyle=orthogonalEdgeStyle;rounded=0;orthogonalLoop=1;jettySize=auto;html=1;exitX=0.5;exitY=1;exitDx=0;exitDy=0;" edge="1" parent="1" source="zCDYjHdCA4FegCx50M5l-15">
          <mxGeometry relative="1" as="geometry">
            <mxPoint x="228.9999999999999" y="1050" as="targetPoint" />
            <mxPoint x="228.0999999999999" y="980" as="sourcePoint" />
          </mxGeometry>
        </mxCell>
        <mxCell id="zCDYjHdCA4FegCx50M5l-11" value="" style="endArrow=none;html=1;rounded=0;" edge="1" parent="1">
          <mxGeometry width="50" height="50" relative="1" as="geometry">
            <mxPoint x="229.9999999999999" y="1050" as="sourcePoint" />
            <mxPoint x="719.9999999999999" y="1050" as="targetPoint" />
          </mxGeometry>
        </mxCell>
        <mxCell id="zCDYjHdCA4FegCx50M5l-12" value="finalgoritmo" style="rounded=1;whiteSpace=wrap;html=1;" vertex="1" parent="1">
          <mxGeometry x="429.9999999999999" y="1130" width="120" height="26" as="geometry" />
        </mxCell>
        <mxCell id="zCDYjHdCA4FegCx50M5l-13" value="" style="endArrow=classic;html=1;rounded=0;entryX=0.5;entryY=0;entryDx=0;entryDy=0;" edge="1" parent="1" target="zCDYjHdCA4FegCx50M5l-12">
          <mxGeometry width="50" height="50" relative="1" as="geometry">
            <mxPoint x="489.9999999999999" y="1050" as="sourcePoint" />
            <mxPoint x="449.9999999999999" y="1010" as="targetPoint" />
          </mxGeometry>
        </mxCell>
        <mxCell id="zCDYjHdCA4FegCx50M5l-15" value="aun sin suerte" style="shape=parallelogram;html=1;strokeWidth=2;perimeter=parallelogramPerimeter;whiteSpace=wrap;rounded=1;arcSize=12;size=0.23;" vertex="1" parent="1">
          <mxGeometry x="140" y="900" width="202.9" height="30" as="geometry" />
        </mxCell>
      </root>
    </mxGraphModel>
  </diagram>
  <diagram id="jBodnxpvMA-LhoZpBmBa" name="Página-10">
    <mxGraphModel dx="880" dy="468" grid="1" gridSize="10" guides="1" tooltips="1" connect="1" arrows="1" fold="1" page="1" pageScale="1" pageWidth="827" pageHeight="1169" math="0" shadow="0">
      <root>
        <mxCell id="0" />
        <mxCell id="1" parent="0" />
      </root>
    </mxGraphModel>
  </diagram>
</mxfile>
